  0
SECTION
  2
HEADER
  9
$ACADVER
  1
AC1009
  9
$DWGCODEPAGE
  3
ansi_1252
  9
$INSBASE
 10
0.0
 20
0.0
 30
0.0
  9
$EXTMIN
 10
35.0
 20
179.8067222222227
 30
0.0
  9
$EXTMAX
 10
1215.0
 20
1179.806722222224
 30
0.0
  9
$LIMMIN
 10
0.0
 20
0.0
  9
$LIMMAX
 10
12.0
 20
9.0
  9
$ORTHOMODE
 70
     0
  9
$REGENMODE
 70
     1
  9
$FILLMODE
 70
     1
  9
$QTEXTMODE
 70
     0
  9
$MIRRTEXT
 70
     1
  9
$DRAGMODE
 70
     2
  9
$LTSCALE
 40
1.0
  9
$OSMODE
 70
    37
  9
$ATTMODE
 70
     1
  9
$TEXTSIZE
 40
0.2
  9
$TRACEWID
 40
0.05
  9
$TEXTSTYLE
  7
STANDARD
  9
$CLAYER
  8
0
  9
$CELTYPE
  6
BYLAYER
  9
$CECOLOR
 62
   256
  9
$DIMSCALE
 40
1.0
  9
$DIMASZ
 40
0.18
  9
$DIMEXO
 40
0.0625
  9
$DIMDLI
 40
0.38
  9
$DIMRND
 40
0.0
  9
$DIMDLE
 40
0.0
  9
$DIMEXE
 40
0.18
  9
$DIMTP
 40
0.0
  9
$DIMTM
 40
0.0
  9
$DIMTXT
 40
0.18
  9
$DIMCEN
 40
0.09
  9
$DIMTSZ
 40
0.0
  9
$DIMTOL
 70
     0
  9
$DIMLIM
 70
     0
  9
$DIMTIH
 70
     1
  9
$DIMTOH
 70
     1
  9
$DIMSE1
 70
     0
  9
$DIMSE2
 70
     0
  9
$DIMTAD
 70
     0
  9
$DIMZIN
 70
     0
  9
$DIMBLK
  1

  9
$DIMASO
 70
     1
  9
$DIMSHO
 70
     1
  9
$DIMPOST
  1

  9
$DIMAPOST
  1

  9
$DIMALT
 70
     0
  9
$DIMALTD
 70
     2
  9
$DIMALTF
 40
25.4
  9
$DIMLFAC
 40
1.0
  9
$DIMTOFL
 70
     0
  9
$DIMTVP
 40
0.0
  9
$DIMTIX
 70
     0
  9
$DIMSOXD
 70
     0
  9
$DIMSAH
 70
     0
  9
$DIMBLK1
  1

  9
$DIMBLK2
  1

  9
$DIMSTYLE
  2
STANDARD
  9
$DIMCLRD
 70
     0
  9
$DIMCLRE
 70
     0
  9
$DIMCLRT
 70
     0
  9
$DIMTFAC
 40
1.0
  9
$DIMGAP
 40
0.09
  9
$LUNITS
 70
     2
  9
$LUPREC
 70
     4
  9
$SKETCHINC
 40
0.1
  9
$FILLETRAD
 40
0.5
  9
$AUNITS
 70
     0
  9
$AUPREC
 70
     0
  9
$MENU
  1
.
  9
$ELEVATION
 40
0.0
  9
$PELEVATION
 40
0.0
  9
$THICKNESS
 40
0.0
  9
$LIMCHECK
 70
     0
  9
$CHAMFERA
 40
0.0
  9
$CHAMFERB
 40
0.0
  9
$SKPOLY
 70
     0
  9
$TDCREATE
 40
2454910.5
  9
$TDUPDATE
 40
2459201.623569167
  9
$TDINDWG
 40
0.0000000116
  9
$TDUSRTIMER
 40
0.0000000116
  9
$USRTIMER
 70
     1
  9
$ANGBASE
 50
0.0
  9
$ANGDIR
 70
     0
  9
$PDMODE
 70
     0
  9
$PDSIZE
 40
0.0
  9
$PLINEWID
 40
0.0
  9
$COORDS
 70
     1
  9
$SPLFRAME
 70
     0
  9
$SPLINETYPE
 70
     6
  9
$SPLINESEGS
 70
     8
  9
$ATTDIA
 70
     0
  9
$ATTREQ
 70
     1
  9
$HANDLING
 70
     1
  9
$HANDSEED
  5
3C6
  9
$SURFTAB1
 70
     6
  9
$SURFTAB2
 70
     6
  9
$SURFTYPE
 70
     6
  9
$SURFU
 70
     6
  9
$SURFV
 70
     6
  9
$UCSNAME
  2

  9
$UCSORG
 10
0.0
 20
0.0
 30
0.0
  9
$UCSXDIR
 10
1.0
 20
0.0
 30
0.0
  9
$UCSYDIR
 10
0.0
 20
1.0
 30
0.0
  9
$PUCSNAME
  2

  9
$PUCSORG
 10
0.0
 20
0.0
 30
0.0
  9
$PUCSXDIR
 10
1.0
 20
0.0
 30
0.0
  9
$PUCSYDIR
 10
0.0
 20
1.0
 30
0.0
  9
$USERI1
 70
     0
  9
$USERI2
 70
     0
  9
$USERI3
 70
     0
  9
$USERI4
 70
     0
  9
$USERI5
 70
     0
  9
$USERR1
 40
0.0
  9
$USERR2
 40
0.0
  9
$USERR3
 40
0.0
  9
$USERR4
 40
0.0
  9
$USERR5
 40
0.0
  9
$WORLDVIEW
 70
     1
  9
$SHADEDGE
 70
     3
  9
$SHADEDIF
 70
    70
  9
$TILEMODE
 70
     1
  9
$MAXACTVP
 70
    64
  9
$PLIMCHECK
 70
     0
  9
$PEXTMIN
 10
1.000000000000000E+20
 20
1.000000000000000E+20
 30
1.000000000000000E+20
  9
$PEXTMAX
 10
-1.000000000000000E+20
 20
-1.000000000000000E+20
 30
-1.000000000000000E+20
  9
$PLIMMIN
 10
0.0
 20
0.0
  9
$PLIMMAX
 10
12.0
 20
9.0
  9
$UNITMODE
 70
     0
  9
$VISRETAIN
 70
     1
  9
$PLINEGEN
 70
     0
  9
$PSLTSCALE
 70
     1
  0
ENDSEC
  0
SECTION
  2
TABLES
  0
TABLE
  2
VPORT
 70
     1
  0
VPORT
  2
*ACTIVE
 70
     0
 10
0.0
 20
0.0
 11
1.0
 21
1.0
 12
10.42990654205607
 22
4.5
 13
0.0
 23
0.0
 14
0.5
 24
0.5
 15
0.5
 25
0.5
 16
0.0
 26
0.0
 36
1.0
 17
0.0
 27
0.0
 37
0.0
 40
9.0
 41
1.972972972850329
 42
50.0
 43
0.0
 44
0.0
 50
0.0
 51
0.0
 71
     0
 72
   100
 73
     1
 74
     3
 75
     0
 76
     0
 77
     0
 78
     0
  0
ENDTAB
  0
TABLE
  2
LTYPE
 70
     2
  0
LTYPE
  2
CONTINUOUS
 70
     0
  3
Solid line
 72
    65
 73
     0
 40
0.0
  0
LTYPE
  2
CONTINUOUS2
 70
     0
  3
Solid Line
 72
    65
 73
     0
 40
0.0
  0
ENDTAB
  0
TABLE
  2
LAYER
 70
     3
  0
LAYER
  2
0
 70
     0
 62
     7
  6
CONTINUOUS
  0
LAYER
  2
CUT_OUT
 70
     0
 62
     1
  6
CONTINUOUS
  0
LAYER
  2
TROU
 70
     0
 62
   105
  6
CONTINUOUS
  0
ENDTAB
  0
TABLE
  2
STYLE
 70
     1
  0
STYLE
  2
STANDARD
 70
     0
 40
0.0
 41
1.0
 50
0.0
 71
     0
 42
0.2
  3
txt
  4

  0
ENDTAB
  0
TABLE
  2
VIEW
 70
     0
  0
ENDTAB
  0
TABLE
  2
UCS
 70
     0
  0
ENDTAB
  0
TABLE
  2
APPID
 70
     1
  0
APPID
  2
ACAD
 70
     0
  0
ENDTAB
  0
TABLE
  2
DIMSTYLE
 70
     1
  0
DIMSTYLE
  2
STANDARD
 70
     0
  3

  4

  5

  6

  7

 40
1.0
 41
0.18
 42
0.0625
 43
0.38
 44
0.18
 45
0.0
 46
0.0
 47
0.0
 48
0.0
140
0.18
141
0.09
142
0.0
143
25.4
144
1.0
145
0.0
146
1.0
147
0.09
 71
     0
 72
     0
 73
     1
 74
     1
 75
     0
 76
     0
 77
     0
 78
     0
170
     0
171
     2
172
     0
173
     0
174
     0
175
     0
176
     0
177
     0
178
     0
  0
ENDTAB
  0
ENDSEC
  0
SECTION
  2
BLOCKS
  0
BLOCK
  8
0
  2
$MODEL_SPACE
 70
     0
 10
0.0
 20
0.0
 30
0.0
  3
$MODEL_SPACE
  1

  0
ENDBLK
  5
21
  8
0
  0
BLOCK
 67
     1
  8
0
  2
$PAPER_SPACE
 70
     0
 10
0.0
 20
0.0
 30
0.0
  3
$PAPER_SPACE
  1

  0
ENDBLK
  5
1D
 67
     1
  8
0
  0
ENDSEC
  0
SECTION
  2
ENTITIES
  0
POLYLINE
  5
70
  8
CUT_OUT
 66
     1
 10
0.0
 20
0.0
 30
0.0
 70
     1
  0
VERTEX
  5
105
  8
CUT_OUT
 10
35.0
 20
179.8067222222227
 30
0.0
  0
VERTEX
  5
106
  8
CUT_OUT
 10
35.0
 20
1179.806722222224
 30
0.0
  0
VERTEX
  5
107
  8
CUT_OUT
 10
1215.0
 20
1179.806722222224
 30
0.0
  0
VERTEX
  5
108
  8
CUT_OUT
 10
1215.0
 20
179.8067222222227
 30
0.0
  0
SEQEND
  5
339
  8
CUT_OUT
  0
POLYLINE
  5
72
  8
TROU
 66
     1
 10
0.0
 20
0.0
 30
0.0
 70
     1
  0
VERTEX
  5
109
  8
TROU
 10
91.10000000000002
 20
1109.806722222223
 30
0.0
  0
VERTEX
  5
10A
  8
TROU
 10
91.10000000000002
 20
1129.806722222223
 30
0.0
 42
1.0
  0
VERTEX
  5
10B
  8
TROU
 10
78.89999999999998
 20
1129.806722222223
 30
0.0
  0
VERTEX
  5
10C
  8
TROU
 10
78.89999999999998
 20
1109.806722222223
 30
0.0
 42
1.0
  0
SEQEND
  5
33A
  8
TROU
  0
POLYLINE
  5
73
  8
TROU
 66
     1
 10
0.0
 20
0.0
 30
0.0
 70
     1
  0
VERTEX
  5
10D
  8
TROU
 10
174.1991737202275
 20
1109.806722222223
 30
0.0
  0
VERTEX
  5
10E
  8
TROU
 10
174.1991737202275
 20
1129.806722222223
 30
0.0
 42
1.0
  0
VERTEX
  5
10F
  8
TROU
 10
161.9991737202275
 20
1129.806722222223
 30
0.0
  0
VERTEX
  5
110
  8
TROU
 10
161.9991737202275
 20
1109.806722222223
 30
0.0
 42
1.0
  0
SEQEND
  5
33B
  8
TROU
  0
POLYLINE
  5
74
  8
TROU
 66
     1
 10
0.0
 20
0.0
 30
0.0
 70
     1
  0
VERTEX
  5
111
  8
TROU
 10
257.2158164926107
 20
1109.806722222223
 30
0.0
  0
VERTEX
  5
112
  8
TROU
 10
257.2158164926107
 20
1129.806722222223
 30
0.0
 42
1.0
  0
VERTEX
  5
113
  8
TROU
 10
245.0158164926107
 20
1129.806722222223
 30
0.0
  0
VERTEX
  5
114
  8
TROU
 10
245.0158164926107
 20
1109.806722222223
 30
0.0
 42
1.0
  0
SEQEND
  5
33C
  8
TROU
  0
POLYLINE
  5
75
  8
TROU
 66
     1
 10
0.0
 20
0.0
 30
0.0
 70
     1
  0
VERTEX
  5
115
  8
TROU
 10
340.3271558190709
 20
1109.806722222223
 30
0.0
  0
VERTEX
  5
116
  8
TROU
 10
340.3271558190709
 20
1129.806722222223
 30
0.0
 42
1.0
  0
VERTEX
  5
117
  8
TROU
 10
328.1271558190708
 20
1129.806722222223
 30
0.0
  0
VERTEX
  5
118
  8
TROU
 10
328.1271558190708
 20
1109.806722222223
 30
0.0
 42
1.0
  0
SEQEND
  5
33D
  8
TROU
  0
POLYLINE
  5
76
  8
TROU
 66
     1
 10
0.0
 20
0.0
 30
0.0
 70
     1
  0
VERTEX
  5
119
  8
TROU
 10
423.4263295392998
 20
1109.806722222223
 30
0.0
  0
VERTEX
  5
11A
  8
TROU
 10
423.4263295392998
 20
1129.806722222223
 30
0.0
 42
1.0
  0
VERTEX
  5
11B
  8
TROU
 10
411.2263295392995
 20
1129.806722222223
 30
0.0
  0
VERTEX
  5
11C
  8
TROU
 10
411.2263295392995
 20
1109.806722222223
 30
0.0
 42
1.0
  0
SEQEND
  5
33E
  8
TROU
  0
POLYLINE
  5
77
  8
TROU
 66
     1
 10
0.0
 20
0.0
 30
0.0
 70
     1
  0
VERTEX
  5
11D
  8
TROU
 10
506.4429723116846
 20
1109.806722222223
 30
0.0
  0
VERTEX
  5
11E
  8
TROU
 10
506.4429723116846
 20
1129.806722222223
 30
0.0
 42
1.0
  0
VERTEX
  5
11F
  8
TROU
 10
494.2429723116844
 20
1129.806722222223
 30
0.0
  0
VERTEX
  5
120
  8
TROU
 10
494.2429723116844
 20
1109.806722222223
 30
0.0
 42
1.0
  0
SEQEND
  5
33F
  8
TROU
  0
POLYLINE
  5
78
  8
TROU
 66
     1
 10
0.0
 20
0.0
 30
0.0
 70
     1
  0
VERTEX
  5
121
  8
TROU
 10
589.5390026606055
 20
1109.806722222223
 30
0.0
  0
VERTEX
  5
122
  8
TROU
 10
589.5390026606055
 20
1129.806722222223
 30
0.0
 42
1.0
  0
VERTEX
  5
123
  8
TROU
 10
577.3390026606057
 20
1129.806722222223
 30
0.0
  0
VERTEX
  5
124
  8
TROU
 10
577.3390026606057
 20
1109.806722222223
 30
0.0
 42
1.0
  0
SEQEND
  5
340
  8
TROU
  0
POLYLINE
  5
79
  8
TROU
 66
     1
 10
0.0
 20
0.0
 30
0.0
 70
     1
  0
VERTEX
  5
125
  8
TROU
 10
672.6381763808312
 20
1109.806722222223
 30
0.0
  0
VERTEX
  5
126
  8
TROU
 10
672.6381763808312
 20
1129.806722222223
 30
0.0
 42
1.0
  0
VERTEX
  5
127
  8
TROU
 10
660.4381763808315
 20
1129.806722222223
 30
0.0
  0
VERTEX
  5
128
  8
TROU
 10
660.4381763808315
 20
1109.806722222223
 30
0.0
 42
1.0
  0
SEQEND
  5
341
  8
TROU
  0
POLYLINE
  5
7A
  8
TROU
 66
     1
 10
0.0
 20
0.0
 30
0.0
 70
     1
  0
VERTEX
  5
129
  8
TROU
 10
755.6548191532122
 20
1109.806722222223
 30
0.0
  0
VERTEX
  5
12A
  8
TROU
 10
755.6548191532122
 20
1129.806722222223
 30
0.0
 42
1.0
  0
VERTEX
  5
12B
  8
TROU
 10
743.4548191532126
 20
1129.806722222223
 30
0.0
  0
VERTEX
  5
12C
  8
TROU
 10
743.4548191532126
 20
1109.806722222223
 30
0.0
 42
1.0
  0
SEQEND
  5
342
  8
TROU
  0
POLYLINE
  5
7B
  8
TROU
 66
     1
 10
0.0
 20
0.0
 30
0.0
 70
     1
  0
VERTEX
  5
12D
  8
TROU
 10
838.7661584796703
 20
1109.806722222223
 30
0.0
  0
VERTEX
  5
12E
  8
TROU
 10
838.7661584796703
 20
1129.806722222223
 30
0.0
 42
1.0
  0
VERTEX
  5
12F
  8
TROU
 10
826.5661584796704
 20
1129.806722222223
 30
0.0
  0
VERTEX
  5
130
  8
TROU
 10
826.5661584796704
 20
1109.806722222223
 30
0.0
 42
1.0
  0
SEQEND
  5
343
  8
TROU
  0
POLYLINE
  5
7C
  8
TROU
 66
     1
 10
0.0
 20
0.0
 30
0.0
 70
     1
  0
VERTEX
  5
131
  8
TROU
 10
921.865332199897
 20
1109.806722222223
 30
0.0
  0
VERTEX
  5
132
  8
TROU
 10
921.865332199897
 20
1129.806722222223
 30
0.0
 42
1.0
  0
VERTEX
  5
133
  8
TROU
 10
909.665332199897
 20
1129.806722222223
 30
0.0
  0
VERTEX
  5
134
  8
TROU
 10
909.665332199897
 20
1109.806722222223
 30
0.0
 42
1.0
  0
SEQEND
  5
344
  8
TROU
  0
POLYLINE
  5
7D
  8
TROU
 66
     1
 10
0.0
 20
0.0
 30
0.0
 70
     1
  0
VERTEX
  5
135
  8
TROU
 10
1004.88197497228
 20
1109.806722222223
 30
0.0
  0
VERTEX
  5
136
  8
TROU
 10
1004.88197497228
 20
1129.806722222223
 30
0.0
 42
1.0
  0
VERTEX
  5
137
  8
TROU
 10
992.6819749722798
 20
1129.806722222223
 30
0.0
  0
VERTEX
  5
138
  8
TROU
 10
992.6819749722798
 20
1109.806722222223
 30
0.0
 42
1.0
  0
SEQEND
  5
345
  8
TROU
  0
POLYLINE
  5
7E
  8
TROU
 66
     1
 10
0.0
 20
0.0
 30
0.0
 70
     1
  0
VERTEX
  5
139
  8
TROU
 10
1088.068239822227
 20
1109.806722222223
 30
0.0
  0
VERTEX
  5
13A
  8
TROU
 10
1088.068239822227
 20
1129.806722222223
 30
0.0
 42
1.0
  0
VERTEX
  5
13B
  8
TROU
 10
1075.868239822227
 20
1129.806722222223
 30
0.0
  0
VERTEX
  5
13C
  8
TROU
 10
1075.868239822227
 20
1109.806722222223
 30
0.0
 42
1.0
  0
SEQEND
  5
346
  8
TROU
  0
POLYLINE
  5
7F
  8
TROU
 66
     1
 10
0.0
 20
0.0
 30
0.0
 70
     1
  0
VERTEX
  5
13D
  8
TROU
 10
1171.08488259461
 20
1109.806722222223
 30
0.0
  0
VERTEX
  5
13E
  8
TROU
 10
1171.08488259461
 20
1129.806722222223
 30
0.0
 42
1.0
  0
VERTEX
  5
13F
  8
TROU
 10
1158.88488259461
 20
1129.806722222223
 30
0.0
  0
VERTEX
  5
140
  8
TROU
 10
1158.88488259461
 20
1109.806722222223
 30
0.0
 42
1.0
  0
SEQEND
  5
347
  8
TROU
  0
POLYLINE
  5
80
  8
TROU
 66
     1
 10
0.0
 20
0.0
 30
0.0
 70
     1
  0
VERTEX
  5
141
  8
TROU
 10
91.10000000000002
 20
1020.906305987112
 30
0.0
  0
VERTEX
  5
142
  8
TROU
 10
91.10000000000002
 20
1040.906305987112
 30
0.0
 42
1.0
  0
VERTEX
  5
143
  8
TROU
 10
78.89999999999998
 20
1040.906305987112
 30
0.0
  0
VERTEX
  5
144
  8
TROU
 10
78.89999999999998
 20
1020.906305987112
 30
0.0
 42
1.0
  0
SEQEND
  5
348
  8
TROU
  0
POLYLINE
  5
81
  8
TROU
 66
     1
 10
0.0
 20
0.0
 30
0.0
 70
     1
  0
VERTEX
  5
145
  8
TROU
 10
174.1991737202275
 20
1020.906305987112
 30
0.0
  0
VERTEX
  5
146
  8
TROU
 10
174.1991737202275
 20
1040.906305987112
 30
0.0
 42
1.0
  0
VERTEX
  5
147
  8
TROU
 10
161.9991737202275
 20
1040.906305987112
 30
0.0
  0
VERTEX
  5
148
  8
TROU
 10
161.9991737202275
 20
1020.906305987112
 30
0.0
 42
1.0
  0
SEQEND
  5
349
  8
TROU
  0
POLYLINE
  5
82
  8
TROU
 66
     1
 10
0.0
 20
0.0
 30
0.0
 70
     1
  0
VERTEX
  5
149
  8
TROU
 10
257.2158164926107
 20
1020.906305987112
 30
0.0
  0
VERTEX
  5
14A
  8
TROU
 10
257.2158164926107
 20
1040.906305987112
 30
0.0
 42
1.0
  0
VERTEX
  5
14B
  8
TROU
 10
245.0158164926107
 20
1040.906305987112
 30
0.0
  0
VERTEX
  5
14C
  8
TROU
 10
245.0158164926107
 20
1020.906305987112
 30
0.0
 42
1.0
  0
SEQEND
  5
34A
  8
TROU
  0
POLYLINE
  5
83
  8
TROU
 66
     1
 10
0.0
 20
0.0
 30
0.0
 70
     1
  0
VERTEX
  5
14D
  8
TROU
 10
340.3271558190709
 20
1020.906305987112
 30
0.0
  0
VERTEX
  5
14E
  8
TROU
 10
340.3271558190709
 20
1040.906305987112
 30
0.0
 42
1.0
  0
VERTEX
  5
14F
  8
TROU
 10
328.1271558190708
 20
1040.906305987112
 30
0.0
  0
VERTEX
  5
150
  8
TROU
 10
328.1271558190708
 20
1020.906305987112
 30
0.0
 42
1.0
  0
SEQEND
  5
34B
  8
TROU
  0
POLYLINE
  5
84
  8
TROU
 66
     1
 10
0.0
 20
0.0
 30
0.0
 70
     1
  0
VERTEX
  5
151
  8
TROU
 10
423.4263295392998
 20
1020.906305987112
 30
0.0
  0
VERTEX
  5
152
  8
TROU
 10
423.4263295392998
 20
1040.906305987112
 30
0.0
 42
1.0
  0
VERTEX
  5
153
  8
TROU
 10
411.2263295392995
 20
1040.906305987112
 30
0.0
  0
VERTEX
  5
154
  8
TROU
 10
411.2263295392995
 20
1020.906305987112
 30
0.0
 42
1.0
  0
SEQEND
  5
34C
  8
TROU
  0
POLYLINE
  5
85
  8
TROU
 66
     1
 10
0.0
 20
0.0
 30
0.0
 70
     1
  0
VERTEX
  5
155
  8
TROU
 10
506.4429723116846
 20
1020.906305987112
 30
0.0
  0
VERTEX
  5
156
  8
TROU
 10
506.4429723116846
 20
1040.906305987112
 30
0.0
 42
1.0
  0
VERTEX
  5
157
  8
TROU
 10
494.2429723116844
 20
1040.906305987112
 30
0.0
  0
VERTEX
  5
158
  8
TROU
 10
494.2429723116844
 20
1020.906305987112
 30
0.0
 42
1.0
  0
SEQEND
  5
34D
  8
TROU
  0
POLYLINE
  5
86
  8
TROU
 66
     1
 10
0.0
 20
0.0
 30
0.0
 70
     1
  0
VERTEX
  5
159
  8
TROU
 10
589.5390026606055
 20
1020.906305987112
 30
0.0
  0
VERTEX
  5
15A
  8
TROU
 10
589.5390026606055
 20
1040.906305987112
 30
0.0
 42
1.0
  0
VERTEX
  5
15B
  8
TROU
 10
577.3390026606057
 20
1040.906305987112
 30
0.0
  0
VERTEX
  5
15C
  8
TROU
 10
577.3390026606057
 20
1020.906305987112
 30
0.0
 42
1.0
  0
SEQEND
  5
34E
  8
TROU
  0
POLYLINE
  5
87
  8
TROU
 66
     1
 10
0.0
 20
0.0
 30
0.0
 70
     1
  0
VERTEX
  5
15D
  8
TROU
 10
672.6381763808312
 20
1020.906305987112
 30
0.0
  0
VERTEX
  5
15E
  8
TROU
 10
672.6381763808312
 20
1040.906305987112
 30
0.0
 42
1.0
  0
VERTEX
  5
15F
  8
TROU
 10
660.4381763808315
 20
1040.906305987112
 30
0.0
  0
VERTEX
  5
160
  8
TROU
 10
660.4381763808315
 20
1020.906305987112
 30
0.0
 42
1.0
  0
SEQEND
  5
34F
  8
TROU
  0
POLYLINE
  5
88
  8
TROU
 66
     1
 10
0.0
 20
0.0
 30
0.0
 70
     1
  0
VERTEX
  5
161
  8
TROU
 10
755.6548191532122
 20
1020.906305987112
 30
0.0
  0
VERTEX
  5
162
  8
TROU
 10
755.6548191532122
 20
1040.906305987112
 30
0.0
 42
1.0
  0
VERTEX
  5
163
  8
TROU
 10
743.4548191532126
 20
1040.906305987112
 30
0.0
  0
VERTEX
  5
164
  8
TROU
 10
743.4548191532126
 20
1020.906305987112
 30
0.0
 42
1.0
  0
SEQEND
  5
350
  8
TROU
  0
POLYLINE
  5
89
  8
TROU
 66
     1
 10
0.0
 20
0.0
 30
0.0
 70
     1
  0
VERTEX
  5
165
  8
TROU
 10
838.7661584796703
 20
1020.906305987112
 30
0.0
  0
VERTEX
  5
166
  8
TROU
 10
838.7661584796703
 20
1040.906305987112
 30
0.0
 42
1.0
  0
VERTEX
  5
167
  8
TROU
 10
826.5661584796704
 20
1040.906305987112
 30
0.0
  0
VERTEX
  5
168
  8
TROU
 10
826.5661584796704
 20
1020.906305987112
 30
0.0
 42
1.0
  0
SEQEND
  5
351
  8
TROU
  0
POLYLINE
  5
8A
  8
TROU
 66
     1
 10
0.0
 20
0.0
 30
0.0
 70
     1
  0
VERTEX
  5
169
  8
TROU
 10
921.865332199897
 20
1020.906305987112
 30
0.0
  0
VERTEX
  5
16A
  8
TROU
 10
921.865332199897
 20
1040.906305987112
 30
0.0
 42
1.0
  0
VERTEX
  5
16B
  8
TROU
 10
909.665332199897
 20
1040.906305987112
 30
0.0
  0
VERTEX
  5
16C
  8
TROU
 10
909.665332199897
 20
1020.906305987112
 30
0.0
 42
1.0
  0
SEQEND
  5
352
  8
TROU
  0
POLYLINE
  5
8B
  8
TROU
 66
     1
 10
0.0
 20
0.0
 30
0.0
 70
     1
  0
VERTEX
  5
16D
  8
TROU
 10
1004.88197497228
 20
1020.906305987112
 30
0.0
  0
VERTEX
  5
16E
  8
TROU
 10
1004.88197497228
 20
1040.906305987112
 30
0.0
 42
1.0
  0
VERTEX
  5
16F
  8
TROU
 10
992.6819749722798
 20
1040.906305987112
 30
0.0
  0
VERTEX
  5
170
  8
TROU
 10
992.6819749722798
 20
1020.906305987112
 30
0.0
 42
1.0
  0
SEQEND
  5
353
  8
TROU
  0
POLYLINE
  5
8C
  8
TROU
 66
     1
 10
0.0
 20
0.0
 30
0.0
 70
     1
  0
VERTEX
  5
171
  8
TROU
 10
1088.068239822227
 20
1020.906305987112
 30
0.0
  0
VERTEX
  5
172
  8
TROU
 10
1088.068239822227
 20
1040.906305987112
 30
0.0
 42
1.0
  0
VERTEX
  5
173
  8
TROU
 10
1075.868239822227
 20
1040.906305987112
 30
0.0
  0
VERTEX
  5
174
  8
TROU
 10
1075.868239822227
 20
1020.906305987112
 30
0.0
 42
1.0
  0
SEQEND
  5
354
  8
TROU
  0
POLYLINE
  5
8D
  8
TROU
 66
     1
 10
0.0
 20
0.0
 30
0.0
 70
     1
  0
VERTEX
  5
175
  8
TROU
 10
1171.08488259461
 20
1020.906305987112
 30
0.0
  0
VERTEX
  5
176
  8
TROU
 10
1171.08488259461
 20
1040.906305987112
 30
0.0
 42
1.0
  0
VERTEX
  5
177
  8
TROU
 10
1158.88488259461
 20
1040.906305987112
 30
0.0
  0
VERTEX
  5
178
  8
TROU
 10
1158.88488259461
 20
1020.906305987112
 30
0.0
 42
1.0
  0
SEQEND
  5
355
  8
TROU
  0
POLYLINE
  5
8E
  8
TROU
 66
     1
 10
0.0
 20
0.0
 30
0.0
 70
     1
  0
VERTEX
  5
179
  8
TROU
 10
91.10000000000002
 20
932.0233342556943
 30
0.0
  0
VERTEX
  5
17A
  8
TROU
 10
91.10000000000002
 20
952.0233342556943
 30
0.0
 42
1.0
  0
VERTEX
  5
17B
  8
TROU
 10
78.89999999999998
 20
952.0233342556943
 30
0.0
  0
VERTEX
  5
17C
  8
TROU
 10
78.89999999999998
 20
932.0233342556943
 30
0.0
 42
1.0
  0
SEQEND
  5
356
  8
TROU
  0
POLYLINE
  5
8F
  8
TROU
 66
     1
 10
0.0
 20
0.0
 30
0.0
 70
     1
  0
VERTEX
  5
17D
  8
TROU
 10
174.1991737202275
 20
932.0233342556943
 30
0.0
  0
VERTEX
  5
17E
  8
TROU
 10
174.1991737202275
 20
952.0233342556943
 30
0.0
 42
1.0
  0
VERTEX
  5
17F
  8
TROU
 10
161.9991737202275
 20
952.0233342556943
 30
0.0
  0
VERTEX
  5
180
  8
TROU
 10
161.9991737202275
 20
932.0233342556943
 30
0.0
 42
1.0
  0
SEQEND
  5
357
  8
TROU
  0
POLYLINE
  5
90
  8
TROU
 66
     1
 10
0.0
 20
0.0
 30
0.0
 70
     1
  0
VERTEX
  5
181
  8
TROU
 10
257.2158164926107
 20
932.0233342556943
 30
0.0
  0
VERTEX
  5
182
  8
TROU
 10
257.2158164926107
 20
952.0233342556943
 30
0.0
 42
1.0
  0
VERTEX
  5
183
  8
TROU
 10
245.0158164926107
 20
952.0233342556943
 30
0.0
  0
VERTEX
  5
184
  8
TROU
 10
245.0158164926107
 20
932.0233342556943
 30
0.0
 42
1.0
  0
SEQEND
  5
358
  8
TROU
  0
POLYLINE
  5
91
  8
TROU
 66
     1
 10
0.0
 20
0.0
 30
0.0
 70
     1
  0
VERTEX
  5
185
  8
TROU
 10
340.3271558190709
 20
932.0233342556943
 30
0.0
  0
VERTEX
  5
186
  8
TROU
 10
340.3271558190709
 20
952.0233342556943
 30
0.0
 42
1.0
  0
VERTEX
  5
187
  8
TROU
 10
328.1271558190708
 20
952.0233342556943
 30
0.0
  0
VERTEX
  5
188
  8
TROU
 10
328.1271558190708
 20
932.0233342556943
 30
0.0
 42
1.0
  0
SEQEND
  5
359
  8
TROU
  0
POLYLINE
  5
92
  8
TROU
 66
     1
 10
0.0
 20
0.0
 30
0.0
 70
     1
  0
VERTEX
  5
189
  8
TROU
 10
423.4263295392998
 20
932.0233342556943
 30
0.0
  0
VERTEX
  5
18A
  8
TROU
 10
423.4263295392998
 20
952.0233342556943
 30
0.0
 42
1.0
  0
VERTEX
  5
18B
  8
TROU
 10
411.2263295392995
 20
952.0233342556943
 30
0.0
  0
VERTEX
  5
18C
  8
TROU
 10
411.2263295392995
 20
932.0233342556943
 30
0.0
 42
1.0
  0
SEQEND
  5
35A
  8
TROU
  0
POLYLINE
  5
93
  8
TROU
 66
     1
 10
0.0
 20
0.0
 30
0.0
 70
     1
  0
VERTEX
  5
18D
  8
TROU
 10
506.4429723116846
 20
932.0233342556943
 30
0.0
  0
VERTEX
  5
18E
  8
TROU
 10
506.4429723116846
 20
952.0233342556943
 30
0.0
 42
1.0
  0
VERTEX
  5
18F
  8
TROU
 10
494.2429723116844
 20
952.0233342556943
 30
0.0
  0
VERTEX
  5
190
  8
TROU
 10
494.2429723116844
 20
932.0233342556943
 30
0.0
 42
1.0
  0
SEQEND
  5
35B
  8
TROU
  0
POLYLINE
  5
94
  8
TROU
 66
     1
 10
0.0
 20
0.0
 30
0.0
 70
     1
  0
VERTEX
  5
191
  8
TROU
 10
589.5390026606055
 20
932.0233342556943
 30
0.0
  0
VERTEX
  5
192
  8
TROU
 10
589.5390026606055
 20
952.0233342556943
 30
0.0
 42
1.0
  0
VERTEX
  5
193
  8
TROU
 10
577.3390026606057
 20
952.0233342556943
 30
0.0
  0
VERTEX
  5
194
  8
TROU
 10
577.3390026606057
 20
932.0233342556943
 30
0.0
 42
1.0
  0
SEQEND
  5
35C
  8
TROU
  0
POLYLINE
  5
95
  8
TROU
 66
     1
 10
0.0
 20
0.0
 30
0.0
 70
     1
  0
VERTEX
  5
195
  8
TROU
 10
672.6381763808312
 20
932.0233342556943
 30
0.0
  0
VERTEX
  5
196
  8
TROU
 10
672.6381763808312
 20
952.0233342556943
 30
0.0
 42
1.0
  0
VERTEX
  5
197
  8
TROU
 10
660.4381763808315
 20
952.0233342556943
 30
0.0
  0
VERTEX
  5
198
  8
TROU
 10
660.4381763808315
 20
932.0233342556943
 30
0.0
 42
1.0
  0
SEQEND
  5
35D
  8
TROU
  0
POLYLINE
  5
96
  8
TROU
 66
     1
 10
0.0
 20
0.0
 30
0.0
 70
     1
  0
VERTEX
  5
199
  8
TROU
 10
755.6548191532122
 20
932.0233342556943
 30
0.0
  0
VERTEX
  5
19A
  8
TROU
 10
755.6548191532122
 20
952.0233342556943
 30
0.0
 42
1.0
  0
VERTEX
  5
19B
  8
TROU
 10
743.4548191532126
 20
952.0233342556943
 30
0.0
  0
VERTEX
  5
19C
  8
TROU
 10
743.4548191532126
 20
932.0233342556943
 30
0.0
 42
1.0
  0
SEQEND
  5
35E
  8
TROU
  0
POLYLINE
  5
97
  8
TROU
 66
     1
 10
0.0
 20
0.0
 30
0.0
 70
     1
  0
VERTEX
  5
19D
  8
TROU
 10
838.7661584796703
 20
932.0233342556943
 30
0.0
  0
VERTEX
  5
19E
  8
TROU
 10
838.7661584796703
 20
952.0233342556943
 30
0.0
 42
1.0
  0
VERTEX
  5
19F
  8
TROU
 10
826.5661584796704
 20
952.0233342556943
 30
0.0
  0
VERTEX
  5
1A0
  8
TROU
 10
826.5661584796704
 20
932.0233342556943
 30
0.0
 42
1.0
  0
SEQEND
  5
35F
  8
TROU
  0
POLYLINE
  5
98
  8
TROU
 66
     1
 10
0.0
 20
0.0
 30
0.0
 70
     1
  0
VERTEX
  5
1A1
  8
TROU
 10
921.865332199897
 20
932.0233342556943
 30
0.0
  0
VERTEX
  5
1A2
  8
TROU
 10
921.865332199897
 20
952.0233342556943
 30
0.0
 42
1.0
  0
VERTEX
  5
1A3
  8
TROU
 10
909.665332199897
 20
952.0233342556943
 30
0.0
  0
VERTEX
  5
1A4
  8
TROU
 10
909.665332199897
 20
932.0233342556943
 30
0.0
 42
1.0
  0
SEQEND
  5
360
  8
TROU
  0
POLYLINE
  5
99
  8
TROU
 66
     1
 10
0.0
 20
0.0
 30
0.0
 70
     1
  0
VERTEX
  5
1A5
  8
TROU
 10
1004.88197497228
 20
932.0233342556943
 30
0.0
  0
VERTEX
  5
1A6
  8
TROU
 10
1004.88197497228
 20
952.0233342556943
 30
0.0
 42
1.0
  0
VERTEX
  5
1A7
  8
TROU
 10
992.6819749722798
 20
952.0233342556943
 30
0.0
  0
VERTEX
  5
1A8
  8
TROU
 10
992.6819749722798
 20
932.0233342556943
 30
0.0
 42
1.0
  0
SEQEND
  5
361
  8
TROU
  0
POLYLINE
  5
9A
  8
TROU
 66
     1
 10
0.0
 20
0.0
 30
0.0
 70
     1
  0
VERTEX
  5
1A9
  8
TROU
 10
1088.068239822227
 20
932.0233342556943
 30
0.0
  0
VERTEX
  5
1AA
  8
TROU
 10
1088.068239822227
 20
952.0233342556943
 30
0.0
 42
1.0
  0
VERTEX
  5
1AB
  8
TROU
 10
1075.868239822227
 20
952.0233342556943
 30
0.0
  0
VERTEX
  5
1AC
  8
TROU
 10
1075.868239822227
 20
932.0233342556943
 30
0.0
 42
1.0
  0
SEQEND
  5
362
  8
TROU
  0
POLYLINE
  5
9B
  8
TROU
 66
     1
 10
0.0
 20
0.0
 30
0.0
 70
     1
  0
VERTEX
  5
1AD
  8
TROU
 10
1171.08488259461
 20
932.0233342556943
 30
0.0
  0
VERTEX
  5
1AE
  8
TROU
 10
1171.08488259461
 20
952.0233342556943
 30
0.0
 42
1.0
  0
VERTEX
  5
1AF
  8
TROU
 10
1158.88488259461
 20
952.0233342556943
 30
0.0
  0
VERTEX
  5
1B0
  8
TROU
 10
1158.88488259461
 20
932.0233342556943
 30
0.0
 42
1.0
  0
SEQEND
  5
363
  8
TROU
  0
POLYLINE
  5
9C
  8
TROU
 66
     1
 10
0.0
 20
0.0
 30
0.0
 70
     1
  0
VERTEX
  5
1B1
  8
TROU
 10
91.10000000000002
 20
843.1874845661621
 30
0.0
  0
VERTEX
  5
1B2
  8
TROU
 10
91.10000000000002
 20
863.1874845661621
 30
0.0
 42
1.0
  0
VERTEX
  5
1B3
  8
TROU
 10
78.89999999999998
 20
863.1874845661621
 30
0.0
  0
VERTEX
  5
1B4
  8
TROU
 10
78.89999999999998
 20
843.1874845661621
 30
0.0
 42
1.0
  0
SEQEND
  5
364
  8
TROU
  0
POLYLINE
  5
9D
  8
TROU
 66
     1
 10
0.0
 20
0.0
 30
0.0
 70
     1
  0
VERTEX
  5
1B5
  8
TROU
 10
174.1991737202275
 20
843.1874845661621
 30
0.0
  0
VERTEX
  5
1B6
  8
TROU
 10
174.1991737202275
 20
863.1874845661621
 30
0.0
 42
1.0
  0
VERTEX
  5
1B7
  8
TROU
 10
161.9991737202275
 20
863.1874845661621
 30
0.0
  0
VERTEX
  5
1B8
  8
TROU
 10
161.9991737202275
 20
843.1874845661621
 30
0.0
 42
1.0
  0
SEQEND
  5
365
  8
TROU
  0
POLYLINE
  5
9E
  8
TROU
 66
     1
 10
0.0
 20
0.0
 30
0.0
 70
     1
  0
VERTEX
  5
1B9
  8
TROU
 10
257.2158164926107
 20
843.1874845661621
 30
0.0
  0
VERTEX
  5
1BA
  8
TROU
 10
257.2158164926107
 20
863.1874845661621
 30
0.0
 42
1.0
  0
VERTEX
  5
1BB
  8
TROU
 10
245.0158164926107
 20
863.1874845661621
 30
0.0
  0
VERTEX
  5
1BC
  8
TROU
 10
245.0158164926107
 20
843.1874845661621
 30
0.0
 42
1.0
  0
SEQEND
  5
366
  8
TROU
  0
POLYLINE
  5
9F
  8
TROU
 66
     1
 10
0.0
 20
0.0
 30
0.0
 70
     1
  0
VERTEX
  5
1BD
  8
TROU
 10
340.3271558190709
 20
843.1874845661621
 30
0.0
  0
VERTEX
  5
1BE
  8
TROU
 10
340.3271558190709
 20
863.1874845661621
 30
0.0
 42
1.0
  0
VERTEX
  5
1BF
  8
TROU
 10
328.1271558190708
 20
863.1874845661621
 30
0.0
  0
VERTEX
  5
1C0
  8
TROU
 10
328.1271558190708
 20
843.1874845661621
 30
0.0
 42
1.0
  0
SEQEND
  5
367
  8
TROU
  0
POLYLINE
  5
A0
  8
TROU
 66
     1
 10
0.0
 20
0.0
 30
0.0
 70
     1
  0
VERTEX
  5
1C1
  8
TROU
 10
423.4263295392998
 20
843.1874845661621
 30
0.0
  0
VERTEX
  5
1C2
  8
TROU
 10
423.4263295392998
 20
863.1874845661621
 30
0.0
 42
1.0
  0
VERTEX
  5
1C3
  8
TROU
 10
411.2263295392995
 20
863.1874845661621
 30
0.0
  0
VERTEX
  5
1C4
  8
TROU
 10
411.2263295392995
 20
843.1874845661621
 30
0.0
 42
1.0
  0
SEQEND
  5
368
  8
TROU
  0
POLYLINE
  5
A1
  8
TROU
 66
     1
 10
0.0
 20
0.0
 30
0.0
 70
     1
  0
VERTEX
  5
1C5
  8
TROU
 10
506.4429723116846
 20
843.1874845661621
 30
0.0
  0
VERTEX
  5
1C6
  8
TROU
 10
506.4429723116846
 20
863.1874845661621
 30
0.0
 42
1.0
  0
VERTEX
  5
1C7
  8
TROU
 10
494.2429723116844
 20
863.1874845661621
 30
0.0
  0
VERTEX
  5
1C8
  8
TROU
 10
494.2429723116844
 20
843.1874845661621
 30
0.0
 42
1.0
  0
SEQEND
  5
369
  8
TROU
  0
POLYLINE
  5
A2
  8
TROU
 66
     1
 10
0.0
 20
0.0
 30
0.0
 70
     1
  0
VERTEX
  5
1C9
  8
TROU
 10
589.5390026606055
 20
843.1874845661621
 30
0.0
  0
VERTEX
  5
1CA
  8
TROU
 10
589.5390026606055
 20
863.1874845661621
 30
0.0
 42
1.0
  0
VERTEX
  5
1CB
  8
TROU
 10
577.3390026606057
 20
863.1874845661621
 30
0.0
  0
VERTEX
  5
1CC
  8
TROU
 10
577.3390026606057
 20
843.1874845661621
 30
0.0
 42
1.0
  0
SEQEND
  5
36A
  8
TROU
  0
POLYLINE
  5
A3
  8
TROU
 66
     1
 10
0.0
 20
0.0
 30
0.0
 70
     1
  0
VERTEX
  5
1CD
  8
TROU
 10
672.6381763808312
 20
843.1874845661621
 30
0.0
  0
VERTEX
  5
1CE
  8
TROU
 10
672.6381763808312
 20
863.1874845661621
 30
0.0
 42
1.0
  0
VERTEX
  5
1CF
  8
TROU
 10
660.4381763808315
 20
863.1874845661621
 30
0.0
  0
VERTEX
  5
1D0
  8
TROU
 10
660.4381763808315
 20
843.1874845661621
 30
0.0
 42
1.0
  0
SEQEND
  5
36B
  8
TROU
  0
POLYLINE
  5
A4
  8
TROU
 66
     1
 10
0.0
 20
0.0
 30
0.0
 70
     1
  0
VERTEX
  5
1D1
  8
TROU
 10
755.6548191532122
 20
843.1874845661621
 30
0.0
  0
VERTEX
  5
1D2
  8
TROU
 10
755.6548191532122
 20
863.1874845661621
 30
0.0
 42
1.0
  0
VERTEX
  5
1D3
  8
TROU
 10
743.4548191532126
 20
863.1874845661621
 30
0.0
  0
VERTEX
  5
1D4
  8
TROU
 10
743.4548191532126
 20
843.1874845661621
 30
0.0
 42
1.0
  0
SEQEND
  5
36C
  8
TROU
  0
POLYLINE
  5
A5
  8
TROU
 66
     1
 10
0.0
 20
0.0
 30
0.0
 70
     1
  0
VERTEX
  5
1D5
  8
TROU
 10
838.7661584796703
 20
843.1874845661621
 30
0.0
  0
VERTEX
  5
1D6
  8
TROU
 10
838.7661584796703
 20
863.1874845661621
 30
0.0
 42
1.0
  0
VERTEX
  5
1D7
  8
TROU
 10
826.5661584796704
 20
863.1874845661621
 30
0.0
  0
VERTEX
  5
1D8
  8
TROU
 10
826.5661584796704
 20
843.1874845661621
 30
0.0
 42
1.0
  0
SEQEND
  5
36D
  8
TROU
  0
POLYLINE
  5
A6
  8
TROU
 66
     1
 10
0.0
 20
0.0
 30
0.0
 70
     1
  0
VERTEX
  5
1D9
  8
TROU
 10
921.865332199897
 20
843.1874845661621
 30
0.0
  0
VERTEX
  5
1DA
  8
TROU
 10
921.865332199897
 20
863.1874845661621
 30
0.0
 42
1.0
  0
VERTEX
  5
1DB
  8
TROU
 10
909.665332199897
 20
863.1874845661621
 30
0.0
  0
VERTEX
  5
1DC
  8
TROU
 10
909.665332199897
 20
843.1874845661621
 30
0.0
 42
1.0
  0
SEQEND
  5
36E
  8
TROU
  0
POLYLINE
  5
A7
  8
TROU
 66
     1
 10
0.0
 20
0.0
 30
0.0
 70
     1
  0
VERTEX
  5
1DD
  8
TROU
 10
1004.88197497228
 20
843.1874845661621
 30
0.0
  0
VERTEX
  5
1DE
  8
TROU
 10
1004.88197497228
 20
863.1874845661621
 30
0.0
 42
1.0
  0
VERTEX
  5
1DF
  8
TROU
 10
992.6819749722798
 20
863.1874845661621
 30
0.0
  0
VERTEX
  5
1E0
  8
TROU
 10
992.6819749722798
 20
843.1874845661621
 30
0.0
 42
1.0
  0
SEQEND
  5
36F
  8
TROU
  0
POLYLINE
  5
A8
  8
TROU
 66
     1
 10
0.0
 20
0.0
 30
0.0
 70
     1
  0
VERTEX
  5
1E1
  8
TROU
 10
1088.068239822227
 20
843.1874845661621
 30
0.0
  0
VERTEX
  5
1E2
  8
TROU
 10
1088.068239822227
 20
863.1874845661621
 30
0.0
 42
1.0
  0
VERTEX
  5
1E3
  8
TROU
 10
1075.868239822227
 20
863.1874845661621
 30
0.0
  0
VERTEX
  5
1E4
  8
TROU
 10
1075.868239822227
 20
843.1874845661621
 30
0.0
 42
1.0
  0
SEQEND
  5
370
  8
TROU
  0
POLYLINE
  5
A9
  8
TROU
 66
     1
 10
0.0
 20
0.0
 30
0.0
 70
     1
  0
VERTEX
  5
1E5
  8
TROU
 10
1171.08488259461
 20
843.1874845661621
 30
0.0
  0
VERTEX
  5
1E6
  8
TROU
 10
1171.08488259461
 20
863.1874845661621
 30
0.0
 42
1.0
  0
VERTEX
  5
1E7
  8
TROU
 10
1158.88488259461
 20
863.1874845661621
 30
0.0
  0
VERTEX
  5
1E8
  8
TROU
 10
1158.88488259461
 20
843.1874845661621
 30
0.0
 42
1.0
  0
SEQEND
  5
371
  8
TROU
  0
POLYLINE
  5
AA
  8
TROU
 66
     1
 10
0.0
 20
0.0
 30
0.0
 70
     1
  0
VERTEX
  5
1E9
  8
TROU
 10
91.10000000000002
 20
754.2575855139155
 30
0.0
  0
VERTEX
  5
1EA
  8
TROU
 10
91.10000000000002
 20
774.2575855139155
 30
0.0
 42
1.0
  0
VERTEX
  5
1EB
  8
TROU
 10
78.89999999999998
 20
774.2575855139155
 30
0.0
  0
VERTEX
  5
1EC
  8
TROU
 10
78.89999999999998
 20
754.2575855139155
 30
0.0
 42
1.0
  0
SEQEND
  5
372
  8
TROU
  0
POLYLINE
  5
AB
  8
TROU
 66
     1
 10
0.0
 20
0.0
 30
0.0
 70
     1
  0
VERTEX
  5
1ED
  8
TROU
 10
174.1991737202275
 20
754.2575855139155
 30
0.0
  0
VERTEX
  5
1EE
  8
TROU
 10
174.1991737202275
 20
774.2575855139155
 30
0.0
 42
1.0
  0
VERTEX
  5
1EF
  8
TROU
 10
161.9991737202275
 20
774.2575855139155
 30
0.0
  0
VERTEX
  5
1F0
  8
TROU
 10
161.9991737202275
 20
754.2575855139155
 30
0.0
 42
1.0
  0
SEQEND
  5
373
  8
TROU
  0
POLYLINE
  5
AC
  8
TROU
 66
     1
 10
0.0
 20
0.0
 30
0.0
 70
     1
  0
VERTEX
  5
1F1
  8
TROU
 10
257.2158164926107
 20
754.2575855139155
 30
0.0
  0
VERTEX
  5
1F2
  8
TROU
 10
257.2158164926107
 20
774.2575855139155
 30
0.0
 42
1.0
  0
VERTEX
  5
1F3
  8
TROU
 10
245.0158164926107
 20
774.2575855139155
 30
0.0
  0
VERTEX
  5
1F4
  8
TROU
 10
245.0158164926107
 20
754.2575855139155
 30
0.0
 42
1.0
  0
SEQEND
  5
374
  8
TROU
  0
POLYLINE
  5
AD
  8
TROU
 66
     1
 10
0.0
 20
0.0
 30
0.0
 70
     1
  0
VERTEX
  5
1F5
  8
TROU
 10
340.3271558190709
 20
754.2575855139155
 30
0.0
  0
VERTEX
  5
1F6
  8
TROU
 10
340.3271558190709
 20
774.2575855139155
 30
0.0
 42
1.0
  0
VERTEX
  5
1F7
  8
TROU
 10
328.1271558190708
 20
774.2575855139155
 30
0.0
  0
VERTEX
  5
1F8
  8
TROU
 10
328.1271558190708
 20
754.2575855139155
 30
0.0
 42
1.0
  0
SEQEND
  5
375
  8
TROU
  0
POLYLINE
  5
AE
  8
TROU
 66
     1
 10
0.0
 20
0.0
 30
0.0
 70
     1
  0
VERTEX
  5
1F9
  8
TROU
 10
423.4263295392998
 20
754.2575855139155
 30
0.0
  0
VERTEX
  5
1FA
  8
TROU
 10
423.4263295392998
 20
774.2575855139155
 30
0.0
 42
1.0
  0
VERTEX
  5
1FB
  8
TROU
 10
411.2263295392995
 20
774.2575855139155
 30
0.0
  0
VERTEX
  5
1FC
  8
TROU
 10
411.2263295392995
 20
754.2575855139155
 30
0.0
 42
1.0
  0
SEQEND
  5
376
  8
TROU
  0
POLYLINE
  5
AF
  8
TROU
 66
     1
 10
0.0
 20
0.0
 30
0.0
 70
     1
  0
VERTEX
  5
1FD
  8
TROU
 10
506.4429723116846
 20
754.2575855139155
 30
0.0
  0
VERTEX
  5
1FE
  8
TROU
 10
506.4429723116846
 20
774.2575855139155
 30
0.0
 42
1.0
  0
VERTEX
  5
1FF
  8
TROU
 10
494.2429723116844
 20
774.2575855139155
 30
0.0
  0
VERTEX
  5
200
  8
TROU
 10
494.2429723116844
 20
754.2575855139155
 30
0.0
 42
1.0
  0
SEQEND
  5
377
  8
TROU
  0
POLYLINE
  5
B0
  8
TROU
 66
     1
 10
0.0
 20
0.0
 30
0.0
 70
     1
  0
VERTEX
  5
201
  8
TROU
 10
589.5390026606055
 20
754.2575855139155
 30
0.0
  0
VERTEX
  5
202
  8
TROU
 10
589.5390026606055
 20
774.2575855139155
 30
0.0
 42
1.0
  0
VERTEX
  5
203
  8
TROU
 10
577.3390026606057
 20
774.2575855139155
 30
0.0
  0
VERTEX
  5
204
  8
TROU
 10
577.3390026606057
 20
754.2575855139155
 30
0.0
 42
1.0
  0
SEQEND
  5
378
  8
TROU
  0
POLYLINE
  5
B1
  8
TROU
 66
     1
 10
0.0
 20
0.0
 30
0.0
 70
     1
  0
VERTEX
  5
205
  8
TROU
 10
672.6381763808312
 20
754.2575855139155
 30
0.0
  0
VERTEX
  5
206
  8
TROU
 10
672.6381763808312
 20
774.2575855139155
 30
0.0
 42
1.0
  0
VERTEX
  5
207
  8
TROU
 10
660.4381763808315
 20
774.2575855139155
 30
0.0
  0
VERTEX
  5
208
  8
TROU
 10
660.4381763808315
 20
754.2575855139155
 30
0.0
 42
1.0
  0
SEQEND
  5
379
  8
TROU
  0
POLYLINE
  5
B2
  8
TROU
 66
     1
 10
0.0
 20
0.0
 30
0.0
 70
     1
  0
VERTEX
  5
209
  8
TROU
 10
755.6548191532122
 20
754.2575855139155
 30
0.0
  0
VERTEX
  5
20A
  8
TROU
 10
755.6548191532122
 20
774.2575855139155
 30
0.0
 42
1.0
  0
VERTEX
  5
20B
  8
TROU
 10
743.4548191532126
 20
774.2575855139155
 30
0.0
  0
VERTEX
  5
20C
  8
TROU
 10
743.4548191532126
 20
754.2575855139155
 30
0.0
 42
1.0
  0
SEQEND
  5
37A
  8
TROU
  0
POLYLINE
  5
B3
  8
TROU
 66
     1
 10
0.0
 20
0.0
 30
0.0
 70
     1
  0
VERTEX
  5
20D
  8
TROU
 10
838.7661584796703
 20
754.2575855139155
 30
0.0
  0
VERTEX
  5
20E
  8
TROU
 10
838.7661584796703
 20
774.2575855139155
 30
0.0
 42
1.0
  0
VERTEX
  5
20F
  8
TROU
 10
826.5661584796704
 20
774.2575855139155
 30
0.0
  0
VERTEX
  5
210
  8
TROU
 10
826.5661584796704
 20
754.2575855139155
 30
0.0
 42
1.0
  0
SEQEND
  5
37B
  8
TROU
  0
POLYLINE
  5
B4
  8
TROU
 66
     1
 10
0.0
 20
0.0
 30
0.0
 70
     1
  0
VERTEX
  5
211
  8
TROU
 10
921.865332199897
 20
754.2575855139155
 30
0.0
  0
VERTEX
  5
212
  8
TROU
 10
921.865332199897
 20
774.2575855139155
 30
0.0
 42
1.0
  0
VERTEX
  5
213
  8
TROU
 10
909.665332199897
 20
774.2575855139155
 30
0.0
  0
VERTEX
  5
214
  8
TROU
 10
909.665332199897
 20
754.2575855139155
 30
0.0
 42
1.0
  0
SEQEND
  5
37C
  8
TROU
  0
POLYLINE
  5
B5
  8
TROU
 66
     1
 10
0.0
 20
0.0
 30
0.0
 70
     1
  0
VERTEX
  5
215
  8
TROU
 10
1004.88197497228
 20
754.2575855139155
 30
0.0
  0
VERTEX
  5
216
  8
TROU
 10
1004.88197497228
 20
774.2575855139155
 30
0.0
 42
1.0
  0
VERTEX
  5
217
  8
TROU
 10
992.6819749722798
 20
774.2575855139155
 30
0.0
  0
VERTEX
  5
218
  8
TROU
 10
992.6819749722798
 20
754.2575855139155
 30
0.0
 42
1.0
  0
SEQEND
  5
37D
  8
TROU
  0
POLYLINE
  5
B6
  8
TROU
 66
     1
 10
0.0
 20
0.0
 30
0.0
 70
     1
  0
VERTEX
  5
219
  8
TROU
 10
1088.068239822227
 20
754.2575855139155
 30
0.0
  0
VERTEX
  5
21A
  8
TROU
 10
1088.068239822227
 20
774.2575855139155
 30
0.0
 42
1.0
  0
VERTEX
  5
21B
  8
TROU
 10
1075.868239822227
 20
774.2575855139155
 30
0.0
  0
VERTEX
  5
21C
  8
TROU
 10
1075.868239822227
 20
754.2575855139155
 30
0.0
 42
1.0
  0
SEQEND
  5
37E
  8
TROU
  0
POLYLINE
  5
B7
  8
TROU
 66
     1
 10
0.0
 20
0.0
 30
0.0
 70
     1
  0
VERTEX
  5
21D
  8
TROU
 10
1171.08488259461
 20
754.2575855139155
 30
0.0
  0
VERTEX
  5
21E
  8
TROU
 10
1171.08488259461
 20
774.2575855139155
 30
0.0
 42
1.0
  0
VERTEX
  5
21F
  8
TROU
 10
1158.88488259461
 20
774.2575855139155
 30
0.0
  0
VERTEX
  5
220
  8
TROU
 10
1158.88488259461
 20
754.2575855139155
 30
0.0
 42
1.0
  0
SEQEND
  5
37F
  8
TROU
  0
POLYLINE
  5
B8
  8
TROU
 66
     1
 10
0.0
 20
0.0
 30
0.0
 70
     1
  0
VERTEX
  5
221
  8
TROU
 10
91.10000000000002
 20
665.3878806987317
 30
0.0
  0
VERTEX
  5
222
  8
TROU
 10
91.10000000000002
 20
685.3878806987317
 30
0.0
 42
1.0
  0
VERTEX
  5
223
  8
TROU
 10
78.89999999999998
 20
685.3878806987317
 30
0.0
  0
VERTEX
  5
224
  8
TROU
 10
78.89999999999998
 20
665.3878806987317
 30
0.0
 42
1.0
  0
SEQEND
  5
380
  8
TROU
  0
POLYLINE
  5
B9
  8
TROU
 66
     1
 10
0.0
 20
0.0
 30
0.0
 70
     1
  0
VERTEX
  5
225
  8
TROU
 10
174.1991737202275
 20
665.3878806987317
 30
0.0
  0
VERTEX
  5
226
  8
TROU
 10
174.1991737202275
 20
685.3878806987317
 30
0.0
 42
1.0
  0
VERTEX
  5
227
  8
TROU
 10
161.9991737202275
 20
685.3878806987317
 30
0.0
  0
VERTEX
  5
228
  8
TROU
 10
161.9991737202275
 20
665.3878806987317
 30
0.0
 42
1.0
  0
SEQEND
  5
381
  8
TROU
  0
POLYLINE
  5
BA
  8
TROU
 66
     1
 10
0.0
 20
0.0
 30
0.0
 70
     1
  0
VERTEX
  5
229
  8
TROU
 10
257.2158164926107
 20
665.3878806987317
 30
0.0
  0
VERTEX
  5
22A
  8
TROU
 10
257.2158164926107
 20
685.3878806987317
 30
0.0
 42
1.0
  0
VERTEX
  5
22B
  8
TROU
 10
245.0158164926107
 20
685.3878806987317
 30
0.0
  0
VERTEX
  5
22C
  8
TROU
 10
245.0158164926107
 20
665.3878806987317
 30
0.0
 42
1.0
  0
SEQEND
  5
382
  8
TROU
  0
POLYLINE
  5
BB
  8
TROU
 66
     1
 10
0.0
 20
0.0
 30
0.0
 70
     1
  0
VERTEX
  5
22D
  8
TROU
 10
340.3271558190709
 20
665.3878806987317
 30
0.0
  0
VERTEX
  5
22E
  8
TROU
 10
340.3271558190709
 20
685.3878806987317
 30
0.0
 42
1.0
  0
VERTEX
  5
22F
  8
TROU
 10
328.1271558190708
 20
685.3878806987317
 30
0.0
  0
VERTEX
  5
230
  8
TROU
 10
328.1271558190708
 20
665.3878806987317
 30
0.0
 42
1.0
  0
SEQEND
  5
383
  8
TROU
  0
POLYLINE
  5
BC
  8
TROU
 66
     1
 10
0.0
 20
0.0
 30
0.0
 70
     1
  0
VERTEX
  5
231
  8
TROU
 10
423.4263295392998
 20
665.3878806987317
 30
0.0
  0
VERTEX
  5
232
  8
TROU
 10
423.4263295392998
 20
685.3878806987317
 30
0.0
 42
1.0
  0
VERTEX
  5
233
  8
TROU
 10
411.2263295392995
 20
685.3878806987317
 30
0.0
  0
VERTEX
  5
234
  8
TROU
 10
411.2263295392995
 20
665.3878806987317
 30
0.0
 42
1.0
  0
SEQEND
  5
384
  8
TROU
  0
POLYLINE
  5
BD
  8
TROU
 66
     1
 10
0.0
 20
0.0
 30
0.0
 70
     1
  0
VERTEX
  5
235
  8
TROU
 10
506.4429723116846
 20
665.3878806987317
 30
0.0
  0
VERTEX
  5
236
  8
TROU
 10
506.4429723116846
 20
685.3878806987317
 30
0.0
 42
1.0
  0
VERTEX
  5
237
  8
TROU
 10
494.2429723116844
 20
685.3878806987317
 30
0.0
  0
VERTEX
  5
238
  8
TROU
 10
494.2429723116844
 20
665.3878806987317
 30
0.0
 42
1.0
  0
SEQEND
  5
385
  8
TROU
  0
POLYLINE
  5
BE
  8
TROU
 66
     1
 10
0.0
 20
0.0
 30
0.0
 70
     1
  0
VERTEX
  5
239
  8
TROU
 10
589.5390026606055
 20
665.3878806987317
 30
0.0
  0
VERTEX
  5
23A
  8
TROU
 10
589.5390026606055
 20
685.3878806987317
 30
0.0
 42
1.0
  0
VERTEX
  5
23B
  8
TROU
 10
577.3390026606057
 20
685.3878806987317
 30
0.0
  0
VERTEX
  5
23C
  8
TROU
 10
577.3390026606057
 20
665.3878806987317
 30
0.0
 42
1.0
  0
SEQEND
  5
386
  8
TROU
  0
POLYLINE
  5
BF
  8
TROU
 66
     1
 10
0.0
 20
0.0
 30
0.0
 70
     1
  0
VERTEX
  5
23D
  8
TROU
 10
672.6381763808312
 20
665.3878806987317
 30
0.0
  0
VERTEX
  5
23E
  8
TROU
 10
672.6381763808312
 20
685.3878806987317
 30
0.0
 42
1.0
  0
VERTEX
  5
23F
  8
TROU
 10
660.4381763808315
 20
685.3878806987317
 30
0.0
  0
VERTEX
  5
240
  8
TROU
 10
660.4381763808315
 20
665.3878806987317
 30
0.0
 42
1.0
  0
SEQEND
  5
387
  8
TROU
  0
POLYLINE
  5
C0
  8
TROU
 66
     1
 10
0.0
 20
0.0
 30
0.0
 70
     1
  0
VERTEX
  5
241
  8
TROU
 10
755.6548191532122
 20
665.3878806987317
 30
0.0
  0
VERTEX
  5
242
  8
TROU
 10
755.6548191532122
 20
685.3878806987317
 30
0.0
 42
1.0
  0
VERTEX
  5
243
  8
TROU
 10
743.4548191532126
 20
685.3878806987317
 30
0.0
  0
VERTEX
  5
244
  8
TROU
 10
743.4548191532126
 20
665.3878806987317
 30
0.0
 42
1.0
  0
SEQEND
  5
388
  8
TROU
  0
POLYLINE
  5
C1
  8
TROU
 66
     1
 10
0.0
 20
0.0
 30
0.0
 70
     1
  0
VERTEX
  5
245
  8
TROU
 10
838.7661584796703
 20
665.3878806987317
 30
0.0
  0
VERTEX
  5
246
  8
TROU
 10
838.7661584796703
 20
685.3878806987317
 30
0.0
 42
1.0
  0
VERTEX
  5
247
  8
TROU
 10
826.5661584796704
 20
685.3878806987317
 30
0.0
  0
VERTEX
  5
248
  8
TROU
 10
826.5661584796704
 20
665.3878806987317
 30
0.0
 42
1.0
  0
SEQEND
  5
389
  8
TROU
  0
POLYLINE
  5
C2
  8
TROU
 66
     1
 10
0.0
 20
0.0
 30
0.0
 70
     1
  0
VERTEX
  5
249
  8
TROU
 10
921.865332199897
 20
665.3878806987317
 30
0.0
  0
VERTEX
  5
24A
  8
TROU
 10
921.865332199897
 20
685.3878806987317
 30
0.0
 42
1.0
  0
VERTEX
  5
24B
  8
TROU
 10
909.665332199897
 20
685.3878806987317
 30
0.0
  0
VERTEX
  5
24C
  8
TROU
 10
909.665332199897
 20
665.3878806987317
 30
0.0
 42
1.0
  0
SEQEND
  5
38A
  8
TROU
  0
POLYLINE
  5
C3
  8
TROU
 66
     1
 10
0.0
 20
0.0
 30
0.0
 70
     1
  0
VERTEX
  5
24D
  8
TROU
 10
1004.88197497228
 20
665.3878806987317
 30
0.0
  0
VERTEX
  5
24E
  8
TROU
 10
1004.88197497228
 20
685.3878806987317
 30
0.0
 42
1.0
  0
VERTEX
  5
24F
  8
TROU
 10
992.6819749722798
 20
685.3878806987317
 30
0.0
  0
VERTEX
  5
250
  8
TROU
 10
992.6819749722798
 20
665.3878806987317
 30
0.0
 42
1.0
  0
SEQEND
  5
38B
  8
TROU
  0
POLYLINE
  5
C4
  8
TROU
 66
     1
 10
0.0
 20
0.0
 30
0.0
 70
     1
  0
VERTEX
  5
251
  8
TROU
 10
1088.068239822227
 20
665.3878806987317
 30
0.0
  0
VERTEX
  5
252
  8
TROU
 10
1088.068239822227
 20
685.3878806987317
 30
0.0
 42
1.0
  0
VERTEX
  5
253
  8
TROU
 10
1075.868239822227
 20
685.3878806987317
 30
0.0
  0
VERTEX
  5
254
  8
TROU
 10
1075.868239822227
 20
665.3878806987317
 30
0.0
 42
1.0
  0
SEQEND
  5
38C
  8
TROU
  0
POLYLINE
  5
C5
  8
TROU
 66
     1
 10
0.0
 20
0.0
 30
0.0
 70
     1
  0
VERTEX
  5
255
  8
TROU
 10
1171.08488259461
 20
665.3878806987317
 30
0.0
  0
VERTEX
  5
256
  8
TROU
 10
1171.08488259461
 20
685.3878806987317
 30
0.0
 42
1.0
  0
VERTEX
  5
257
  8
TROU
 10
1158.88488259461
 20
685.3878806987317
 30
0.0
  0
VERTEX
  5
258
  8
TROU
 10
1158.88488259461
 20
665.3878806987317
 30
0.0
 42
1.0
  0
SEQEND
  5
38D
  8
TROU
  0
POLYLINE
  5
C6
  8
TROU
 66
     1
 10
0.0
 20
0.0
 30
0.0
 70
     1
  0
VERTEX
  5
259
  8
TROU
 10
91.10000000000002
 20
576.5340339403793
 30
0.0
  0
VERTEX
  5
25A
  8
TROU
 10
91.10000000000002
 20
596.5340339403793
 30
0.0
 42
1.0
  0
VERTEX
  5
25B
  8
TROU
 10
78.89999999999998
 20
596.5340339403793
 30
0.0
  0
VERTEX
  5
25C
  8
TROU
 10
78.89999999999998
 20
576.5340339403793
 30
0.0
 42
1.0
  0
SEQEND
  5
38E
  8
TROU
  0
POLYLINE
  5
C7
  8
TROU
 66
     1
 10
0.0
 20
0.0
 30
0.0
 70
     1
  0
VERTEX
  5
25D
  8
TROU
 10
174.1991737202275
 20
576.5340339403793
 30
0.0
  0
VERTEX
  5
25E
  8
TROU
 10
174.1991737202275
 20
596.5340339403793
 30
0.0
 42
1.0
  0
VERTEX
  5
25F
  8
TROU
 10
161.9991737202275
 20
596.5340339403793
 30
0.0
  0
VERTEX
  5
260
  8
TROU
 10
161.9991737202275
 20
576.5340339403793
 30
0.0
 42
1.0
  0
SEQEND
  5
38F
  8
TROU
  0
POLYLINE
  5
C8
  8
TROU
 66
     1
 10
0.0
 20
0.0
 30
0.0
 70
     1
  0
VERTEX
  5
261
  8
TROU
 10
257.2158164926107
 20
576.5340339403793
 30
0.0
  0
VERTEX
  5
262
  8
TROU
 10
257.2158164926107
 20
596.5340339403793
 30
0.0
 42
1.0
  0
VERTEX
  5
263
  8
TROU
 10
245.0158164926107
 20
596.5340339403793
 30
0.0
  0
VERTEX
  5
264
  8
TROU
 10
245.0158164926107
 20
576.5340339403793
 30
0.0
 42
1.0
  0
SEQEND
  5
390
  8
TROU
  0
POLYLINE
  5
C9
  8
TROU
 66
     1
 10
0.0
 20
0.0
 30
0.0
 70
     1
  0
VERTEX
  5
265
  8
TROU
 10
340.3271558190709
 20
576.5340339403793
 30
0.0
  0
VERTEX
  5
266
  8
TROU
 10
340.3271558190709
 20
596.5340339403793
 30
0.0
 42
1.0
  0
VERTEX
  5
267
  8
TROU
 10
328.1271558190708
 20
596.5340339403793
 30
0.0
  0
VERTEX
  5
268
  8
TROU
 10
328.1271558190708
 20
576.5340339403793
 30
0.0
 42
1.0
  0
SEQEND
  5
391
  8
TROU
  0
POLYLINE
  5
CA
  8
TROU
 66
     1
 10
0.0
 20
0.0
 30
0.0
 70
     1
  0
VERTEX
  5
269
  8
TROU
 10
423.4263295392998
 20
576.5340339403793
 30
0.0
  0
VERTEX
  5
26A
  8
TROU
 10
423.4263295392998
 20
596.5340339403793
 30
0.0
 42
1.0
  0
VERTEX
  5
26B
  8
TROU
 10
411.2263295392995
 20
596.5340339403793
 30
0.0
  0
VERTEX
  5
26C
  8
TROU
 10
411.2263295392995
 20
576.5340339403793
 30
0.0
 42
1.0
  0
SEQEND
  5
392
  8
TROU
  0
POLYLINE
  5
CB
  8
TROU
 66
     1
 10
0.0
 20
0.0
 30
0.0
 70
     1
  0
VERTEX
  5
26D
  8
TROU
 10
506.4429723116846
 20
576.5340339403793
 30
0.0
  0
VERTEX
  5
26E
  8
TROU
 10
506.4429723116846
 20
596.5340339403793
 30
0.0
 42
1.0
  0
VERTEX
  5
26F
  8
TROU
 10
494.2429723116844
 20
596.5340339403793
 30
0.0
  0
VERTEX
  5
270
  8
TROU
 10
494.2429723116844
 20
576.5340339403793
 30
0.0
 42
1.0
  0
SEQEND
  5
393
  8
TROU
  0
POLYLINE
  5
CC
  8
TROU
 66
     1
 10
0.0
 20
0.0
 30
0.0
 70
     1
  0
VERTEX
  5
271
  8
TROU
 10
589.5390026606055
 20
576.5340339403793
 30
0.0
  0
VERTEX
  5
272
  8
TROU
 10
589.5390026606055
 20
596.5340339403793
 30
0.0
 42
1.0
  0
VERTEX
  5
273
  8
TROU
 10
577.3390026606057
 20
596.5340339403793
 30
0.0
  0
VERTEX
  5
274
  8
TROU
 10
577.3390026606057
 20
576.5340339403793
 30
0.0
 42
1.0
  0
SEQEND
  5
394
  8
TROU
  0
POLYLINE
  5
CD
  8
TROU
 66
     1
 10
0.0
 20
0.0
 30
0.0
 70
     1
  0
VERTEX
  5
275
  8
TROU
 10
672.6381763808312
 20
576.5340339403793
 30
0.0
  0
VERTEX
  5
276
  8
TROU
 10
672.6381763808312
 20
596.5340339403793
 30
0.0
 42
1.0
  0
VERTEX
  5
277
  8
TROU
 10
660.4381763808315
 20
596.5340339403793
 30
0.0
  0
VERTEX
  5
278
  8
TROU
 10
660.4381763808315
 20
576.5340339403793
 30
0.0
 42
1.0
  0
SEQEND
  5
395
  8
TROU
  0
POLYLINE
  5
CE
  8
TROU
 66
     1
 10
0.0
 20
0.0
 30
0.0
 70
     1
  0
VERTEX
  5
279
  8
TROU
 10
755.6548191532122
 20
576.5340339403793
 30
0.0
  0
VERTEX
  5
27A
  8
TROU
 10
755.6548191532122
 20
596.5340339403793
 30
0.0
 42
1.0
  0
VERTEX
  5
27B
  8
TROU
 10
743.4548191532126
 20
596.5340339403793
 30
0.0
  0
VERTEX
  5
27C
  8
TROU
 10
743.4548191532126
 20
576.5340339403793
 30
0.0
 42
1.0
  0
SEQEND
  5
396
  8
TROU
  0
POLYLINE
  5
CF
  8
TROU
 66
     1
 10
0.0
 20
0.0
 30
0.0
 70
     1
  0
VERTEX
  5
27D
  8
TROU
 10
838.7661584796703
 20
576.5340339403793
 30
0.0
  0
VERTEX
  5
27E
  8
TROU
 10
838.7661584796703
 20
596.5340339403793
 30
0.0
 42
1.0
  0
VERTEX
  5
27F
  8
TROU
 10
826.5661584796704
 20
596.5340339403793
 30
0.0
  0
VERTEX
  5
280
  8
TROU
 10
826.5661584796704
 20
576.5340339403793
 30
0.0
 42
1.0
  0
SEQEND
  5
397
  8
TROU
  0
POLYLINE
  5
D0
  8
TROU
 66
     1
 10
0.0
 20
0.0
 30
0.0
 70
     1
  0
VERTEX
  5
281
  8
TROU
 10
921.865332199897
 20
576.5340339403793
 30
0.0
  0
VERTEX
  5
282
  8
TROU
 10
921.865332199897
 20
596.5340339403793
 30
0.0
 42
1.0
  0
VERTEX
  5
283
  8
TROU
 10
909.665332199897
 20
596.5340339403793
 30
0.0
  0
VERTEX
  5
284
  8
TROU
 10
909.665332199897
 20
576.5340339403793
 30
0.0
 42
1.0
  0
SEQEND
  5
398
  8
TROU
  0
POLYLINE
  5
D1
  8
TROU
 66
     1
 10
0.0
 20
0.0
 30
0.0
 70
     1
  0
VERTEX
  5
285
  8
TROU
 10
1004.88197497228
 20
576.5340339403793
 30
0.0
  0
VERTEX
  5
286
  8
TROU
 10
1004.88197497228
 20
596.5340339403793
 30
0.0
 42
1.0
  0
VERTEX
  5
287
  8
TROU
 10
992.6819749722798
 20
596.5340339403793
 30
0.0
  0
VERTEX
  5
288
  8
TROU
 10
992.6819749722798
 20
576.5340339403793
 30
0.0
 42
1.0
  0
SEQEND
  5
399
  8
TROU
  0
POLYLINE
  5
D2
  8
TROU
 66
     1
 10
0.0
 20
0.0
 30
0.0
 70
     1
  0
VERTEX
  5
289
  8
TROU
 10
1088.068239822227
 20
576.5340339403793
 30
0.0
  0
VERTEX
  5
28A
  8
TROU
 10
1088.068239822227
 20
596.5340339403793
 30
0.0
 42
1.0
  0
VERTEX
  5
28B
  8
TROU
 10
1075.868239822227
 20
596.5340339403793
 30
0.0
  0
VERTEX
  5
28C
  8
TROU
 10
1075.868239822227
 20
576.5340339403793
 30
0.0
 42
1.0
  0
SEQEND
  5
39A
  8
TROU
  0
POLYLINE
  5
D3
  8
TROU
 66
     1
 10
0.0
 20
0.0
 30
0.0
 70
     1
  0
VERTEX
  5
28D
  8
TROU
 10
1171.08488259461
 20
576.5340339403793
 30
0.0
  0
VERTEX
  5
28E
  8
TROU
 10
1171.08488259461
 20
596.5340339403793
 30
0.0
 42
1.0
  0
VERTEX
  5
28F
  8
TROU
 10
1158.88488259461
 20
596.5340339403793
 30
0.0
  0
VERTEX
  5
290
  8
TROU
 10
1158.88488259461
 20
576.5340339403793
 30
0.0
 42
1.0
  0
SEQEND
  5
39B
  8
TROU
  0
POLYLINE
  5
D4
  8
TROU
 66
     1
 10
0.0
 20
0.0
 30
0.0
 70
     1
  0
VERTEX
  5
291
  8
TROU
 10
91.10000000000002
 20
487.6102482950742
 30
0.0
  0
VERTEX
  5
292
  8
TROU
 10
91.10000000000002
 20
507.6102482950742
 30
0.0
 42
1.0
  0
VERTEX
  5
293
  8
TROU
 10
78.89999999999998
 20
507.6102482950742
 30
0.0
  0
VERTEX
  5
294
  8
TROU
 10
78.89999999999998
 20
487.6102482950742
 30
0.0
 42
1.0
  0
SEQEND
  5
39C
  8
TROU
  0
POLYLINE
  5
D5
  8
TROU
 66
     1
 10
0.0
 20
0.0
 30
0.0
 70
     1
  0
VERTEX
  5
295
  8
TROU
 10
174.1991737202275
 20
487.6102482950742
 30
0.0
  0
VERTEX
  5
296
  8
TROU
 10
174.1991737202275
 20
507.6102482950742
 30
0.0
 42
1.0
  0
VERTEX
  5
297
  8
TROU
 10
161.9991737202275
 20
507.6102482950742
 30
0.0
  0
VERTEX
  5
298
  8
TROU
 10
161.9991737202275
 20
487.6102482950742
 30
0.0
 42
1.0
  0
SEQEND
  5
39D
  8
TROU
  0
POLYLINE
  5
D6
  8
TROU
 66
     1
 10
0.0
 20
0.0
 30
0.0
 70
     1
  0
VERTEX
  5
299
  8
TROU
 10
257.2158164926107
 20
487.6102482950742
 30
0.0
  0
VERTEX
  5
29A
  8
TROU
 10
257.2158164926107
 20
507.6102482950742
 30
0.0
 42
1.0
  0
VERTEX
  5
29B
  8
TROU
 10
245.0158164926107
 20
507.6102482950742
 30
0.0
  0
VERTEX
  5
29C
  8
TROU
 10
245.0158164926107
 20
487.6102482950742
 30
0.0
 42
1.0
  0
SEQEND
  5
39E
  8
TROU
  0
POLYLINE
  5
D7
  8
TROU
 66
     1
 10
0.0
 20
0.0
 30
0.0
 70
     1
  0
VERTEX
  5
29D
  8
TROU
 10
340.3271558190709
 20
487.6102482950742
 30
0.0
  0
VERTEX
  5
29E
  8
TROU
 10
340.3271558190709
 20
507.6102482950742
 30
0.0
 42
1.0
  0
VERTEX
  5
29F
  8
TROU
 10
328.1271558190708
 20
507.6102482950742
 30
0.0
  0
VERTEX
  5
2A0
  8
TROU
 10
328.1271558190708
 20
487.6102482950742
 30
0.0
 42
1.0
  0
SEQEND
  5
39F
  8
TROU
  0
POLYLINE
  5
D8
  8
TROU
 66
     1
 10
0.0
 20
0.0
 30
0.0
 70
     1
  0
VERTEX
  5
2A1
  8
TROU
 10
423.4263295392998
 20
487.6102482950742
 30
0.0
  0
VERTEX
  5
2A2
  8
TROU
 10
423.4263295392998
 20
507.6102482950742
 30
0.0
 42
1.0
  0
VERTEX
  5
2A3
  8
TROU
 10
411.2263295392995
 20
507.6102482950742
 30
0.0
  0
VERTEX
  5
2A4
  8
TROU
 10
411.2263295392995
 20
487.6102482950742
 30
0.0
 42
1.0
  0
SEQEND
  5
3A0
  8
TROU
  0
POLYLINE
  5
D9
  8
TROU
 66
     1
 10
0.0
 20
0.0
 30
0.0
 70
     1
  0
VERTEX
  5
2A5
  8
TROU
 10
506.4429723116846
 20
487.6102482950742
 30
0.0
  0
VERTEX
  5
2A6
  8
TROU
 10
506.4429723116846
 20
507.6102482950742
 30
0.0
 42
1.0
  0
VERTEX
  5
2A7
  8
TROU
 10
494.2429723116844
 20
507.6102482950742
 30
0.0
  0
VERTEX
  5
2A8
  8
TROU
 10
494.2429723116844
 20
487.6102482950742
 30
0.0
 42
1.0
  0
SEQEND
  5
3A1
  8
TROU
  0
POLYLINE
  5
DA
  8
TROU
 66
     1
 10
0.0
 20
0.0
 30
0.0
 70
     1
  0
VERTEX
  5
2A9
  8
TROU
 10
589.5390026606055
 20
487.6102482950742
 30
0.0
  0
VERTEX
  5
2AA
  8
TROU
 10
589.5390026606055
 20
507.6102482950742
 30
0.0
 42
1.0
  0
VERTEX
  5
2AB
  8
TROU
 10
577.3390026606057
 20
507.6102482950742
 30
0.0
  0
VERTEX
  5
2AC
  8
TROU
 10
577.3390026606057
 20
487.6102482950742
 30
0.0
 42
1.0
  0
SEQEND
  5
3A2
  8
TROU
  0
POLYLINE
  5
DB
  8
TROU
 66
     1
 10
0.0
 20
0.0
 30
0.0
 70
     1
  0
VERTEX
  5
2AD
  8
TROU
 10
672.6381763808312
 20
487.6102482950742
 30
0.0
  0
VERTEX
  5
2AE
  8
TROU
 10
672.6381763808312
 20
507.6102482950742
 30
0.0
 42
1.0
  0
VERTEX
  5
2AF
  8
TROU
 10
660.4381763808315
 20
507.6102482950742
 30
0.0
  0
VERTEX
  5
2B0
  8
TROU
 10
660.4381763808315
 20
487.6102482950742
 30
0.0
 42
1.0
  0
SEQEND
  5
3A3
  8
TROU
  0
POLYLINE
  5
DC
  8
TROU
 66
     1
 10
0.0
 20
0.0
 30
0.0
 70
     1
  0
VERTEX
  5
2B1
  8
TROU
 10
755.6548191532122
 20
487.6102482950742
 30
0.0
  0
VERTEX
  5
2B2
  8
TROU
 10
755.6548191532122
 20
507.6102482950742
 30
0.0
 42
1.0
  0
VERTEX
  5
2B3
  8
TROU
 10
743.4548191532126
 20
507.6102482950742
 30
0.0
  0
VERTEX
  5
2B4
  8
TROU
 10
743.4548191532126
 20
487.6102482950742
 30
0.0
 42
1.0
  0
SEQEND
  5
3A4
  8
TROU
  0
POLYLINE
  5
DD
  8
TROU
 66
     1
 10
0.0
 20
0.0
 30
0.0
 70
     1
  0
VERTEX
  5
2B5
  8
TROU
 10
838.7661584796703
 20
487.6102482950742
 30
0.0
  0
VERTEX
  5
2B6
  8
TROU
 10
838.7661584796703
 20
507.6102482950742
 30
0.0
 42
1.0
  0
VERTEX
  5
2B7
  8
TROU
 10
826.5661584796704
 20
507.6102482950742
 30
0.0
  0
VERTEX
  5
2B8
  8
TROU
 10
826.5661584796704
 20
487.6102482950742
 30
0.0
 42
1.0
  0
SEQEND
  5
3A5
  8
TROU
  0
POLYLINE
  5
DE
  8
TROU
 66
     1
 10
0.0
 20
0.0
 30
0.0
 70
     1
  0
VERTEX
  5
2B9
  8
TROU
 10
921.865332199897
 20
487.6102482950742
 30
0.0
  0
VERTEX
  5
2BA
  8
TROU
 10
921.865332199897
 20
507.6102482950742
 30
0.0
 42
1.0
  0
VERTEX
  5
2BB
  8
TROU
 10
909.665332199897
 20
507.6102482950742
 30
0.0
  0
VERTEX
  5
2BC
  8
TROU
 10
909.665332199897
 20
487.6102482950742
 30
0.0
 42
1.0
  0
SEQEND
  5
3A6
  8
TROU
  0
POLYLINE
  5
DF
  8
TROU
 66
     1
 10
0.0
 20
0.0
 30
0.0
 70
     1
  0
VERTEX
  5
2BD
  8
TROU
 10
1004.88197497228
 20
487.6102482950742
 30
0.0
  0
VERTEX
  5
2BE
  8
TROU
 10
1004.88197497228
 20
507.6102482950742
 30
0.0
 42
1.0
  0
VERTEX
  5
2BF
  8
TROU
 10
992.6819749722798
 20
507.6102482950742
 30
0.0
  0
VERTEX
  5
2C0
  8
TROU
 10
992.6819749722798
 20
487.6102482950742
 30
0.0
 42
1.0
  0
SEQEND
  5
3A7
  8
TROU
  0
POLYLINE
  5
E0
  8
TROU
 66
     1
 10
0.0
 20
0.0
 30
0.0
 70
     1
  0
VERTEX
  5
2C1
  8
TROU
 10
1088.068239822227
 20
487.6102482950742
 30
0.0
  0
VERTEX
  5
2C2
  8
TROU
 10
1088.068239822227
 20
507.6102482950742
 30
0.0
 42
1.0
  0
VERTEX
  5
2C3
  8
TROU
 10
1075.868239822227
 20
507.6102482950742
 30
0.0
  0
VERTEX
  5
2C4
  8
TROU
 10
1075.868239822227
 20
487.6102482950742
 30
0.0
 42
1.0
  0
SEQEND
  5
3A8
  8
TROU
  0
POLYLINE
  5
E1
  8
TROU
 66
     1
 10
0.0
 20
0.0
 30
0.0
 70
     1
  0
VERTEX
  5
2C5
  8
TROU
 10
1171.08488259461
 20
487.6102482950742
 30
0.0
  0
VERTEX
  5
2C6
  8
TROU
 10
1171.08488259461
 20
507.6102482950742
 30
0.0
 42
1.0
  0
VERTEX
  5
2C7
  8
TROU
 10
1158.88488259461
 20
507.6102482950742
 30
0.0
  0
VERTEX
  5
2C8
  8
TROU
 10
1158.88488259461
 20
487.6102482950742
 30
0.0
 42
1.0
  0
SEQEND
  5
3A9
  8
TROU
  0
POLYLINE
  5
E2
  8
TROU
 66
     1
 10
0.0
 20
0.0
 30
0.0
 70
     1
  0
VERTEX
  5
2C9
  8
TROU
 10
91.10000000000002
 20
398.5691238700397
 30
0.0
  0
VERTEX
  5
2CA
  8
TROU
 10
91.10000000000002
 20
418.5691238700397
 30
0.0
 42
1.0
  0
VERTEX
  5
2CB
  8
TROU
 10
78.89999999999998
 20
418.5691238700397
 30
0.0
  0
VERTEX
  5
2CC
  8
TROU
 10
78.89999999999998
 20
398.5691238700397
 30
0.0
 42
1.0
  0
SEQEND
  5
3AA
  8
TROU
  0
POLYLINE
  5
E3
  8
TROU
 66
     1
 10
0.0
 20
0.0
 30
0.0
 70
     1
  0
VERTEX
  5
2CD
  8
TROU
 10
174.1991737202275
 20
398.5691238700397
 30
0.0
  0
VERTEX
  5
2CE
  8
TROU
 10
174.1991737202275
 20
418.5691238700397
 30
0.0
 42
1.0
  0
VERTEX
  5
2CF
  8
TROU
 10
161.9991737202275
 20
418.5691238700397
 30
0.0
  0
VERTEX
  5
2D0
  8
TROU
 10
161.9991737202275
 20
398.5691238700397
 30
0.0
 42
1.0
  0
SEQEND
  5
3AB
  8
TROU
  0
POLYLINE
  5
E4
  8
TROU
 66
     1
 10
0.0
 20
0.0
 30
0.0
 70
     1
  0
VERTEX
  5
2D1
  8
TROU
 10
257.2158164926107
 20
398.5691238700397
 30
0.0
  0
VERTEX
  5
2D2
  8
TROU
 10
257.2158164926107
 20
418.5691238700397
 30
0.0
 42
1.0
  0
VERTEX
  5
2D3
  8
TROU
 10
245.0158164926107
 20
418.5691238700397
 30
0.0
  0
VERTEX
  5
2D4
  8
TROU
 10
245.0158164926107
 20
398.5691238700397
 30
0.0
 42
1.0
  0
SEQEND
  5
3AC
  8
TROU
  0
POLYLINE
  5
E5
  8
TROU
 66
     1
 10
0.0
 20
0.0
 30
0.0
 70
     1
  0
VERTEX
  5
2D5
  8
TROU
 10
340.3271558190709
 20
398.5691238700397
 30
0.0
  0
VERTEX
  5
2D6
  8
TROU
 10
340.3271558190709
 20
418.5691238700397
 30
0.0
 42
1.0
  0
VERTEX
  5
2D7
  8
TROU
 10
328.1271558190708
 20
418.5691238700397
 30
0.0
  0
VERTEX
  5
2D8
  8
TROU
 10
328.1271558190708
 20
398.5691238700397
 30
0.0
 42
1.0
  0
SEQEND
  5
3AD
  8
TROU
  0
POLYLINE
  5
E6
  8
TROU
 66
     1
 10
0.0
 20
0.0
 30
0.0
 70
     1
  0
VERTEX
  5
2D9
  8
TROU
 10
423.4263295392998
 20
398.5691238700397
 30
0.0
  0
VERTEX
  5
2DA
  8
TROU
 10
423.4263295392998
 20
418.5691238700397
 30
0.0
 42
1.0
  0
VERTEX
  5
2DB
  8
TROU
 10
411.2263295392995
 20
418.5691238700397
 30
0.0
  0
VERTEX
  5
2DC
  8
TROU
 10
411.2263295392995
 20
398.5691238700397
 30
0.0
 42
1.0
  0
SEQEND
  5
3AE
  8
TROU
  0
POLYLINE
  5
E7
  8
TROU
 66
     1
 10
0.0
 20
0.0
 30
0.0
 70
     1
  0
VERTEX
  5
2DD
  8
TROU
 10
506.4429723116846
 20
398.5691238700397
 30
0.0
  0
VERTEX
  5
2DE
  8
TROU
 10
506.4429723116846
 20
418.5691238700397
 30
0.0
 42
1.0
  0
VERTEX
  5
2DF
  8
TROU
 10
494.2429723116844
 20
418.5691238700397
 30
0.0
  0
VERTEX
  5
2E0
  8
TROU
 10
494.2429723116844
 20
398.5691238700397
 30
0.0
 42
1.0
  0
SEQEND
  5
3AF
  8
TROU
  0
POLYLINE
  5
E8
  8
TROU
 66
     1
 10
0.0
 20
0.0
 30
0.0
 70
     1
  0
VERTEX
  5
2E1
  8
TROU
 10
589.5390026606055
 20
398.5691238700397
 30
0.0
  0
VERTEX
  5
2E2
  8
TROU
 10
589.5390026606055
 20
418.5691238700397
 30
0.0
 42
1.0
  0
VERTEX
  5
2E3
  8
TROU
 10
577.3390026606057
 20
418.5691238700397
 30
0.0
  0
VERTEX
  5
2E4
  8
TROU
 10
577.3390026606057
 20
398.5691238700397
 30
0.0
 42
1.0
  0
SEQEND
  5
3B0
  8
TROU
  0
POLYLINE
  5
E9
  8
TROU
 66
     1
 10
0.0
 20
0.0
 30
0.0
 70
     1
  0
VERTEX
  5
2E5
  8
TROU
 10
672.6381763808312
 20
398.5691238700397
 30
0.0
  0
VERTEX
  5
2E6
  8
TROU
 10
672.6381763808312
 20
418.5691238700397
 30
0.0
 42
1.0
  0
VERTEX
  5
2E7
  8
TROU
 10
660.4381763808315
 20
418.5691238700397
 30
0.0
  0
VERTEX
  5
2E8
  8
TROU
 10
660.4381763808315
 20
398.5691238700397
 30
0.0
 42
1.0
  0
SEQEND
  5
3B1
  8
TROU
  0
POLYLINE
  5
EA
  8
TROU
 66
     1
 10
0.0
 20
0.0
 30
0.0
 70
     1
  0
VERTEX
  5
2E9
  8
TROU
 10
755.6548191532122
 20
398.5691238700397
 30
0.0
  0
VERTEX
  5
2EA
  8
TROU
 10
755.6548191532122
 20
418.5691238700397
 30
0.0
 42
1.0
  0
VERTEX
  5
2EB
  8
TROU
 10
743.4548191532126
 20
418.5691238700397
 30
0.0
  0
VERTEX
  5
2EC
  8
TROU
 10
743.4548191532126
 20
398.5691238700397
 30
0.0
 42
1.0
  0
SEQEND
  5
3B2
  8
TROU
  0
POLYLINE
  5
EB
  8
TROU
 66
     1
 10
0.0
 20
0.0
 30
0.0
 70
     1
  0
VERTEX
  5
2ED
  8
TROU
 10
838.7661584796703
 20
398.5691238700397
 30
0.0
  0
VERTEX
  5
2EE
  8
TROU
 10
838.7661584796703
 20
418.5691238700397
 30
0.0
 42
1.0
  0
VERTEX
  5
2EF
  8
TROU
 10
826.5661584796704
 20
418.5691238700397
 30
0.0
  0
VERTEX
  5
2F0
  8
TROU
 10
826.5661584796704
 20
398.5691238700397
 30
0.0
 42
1.0
  0
SEQEND
  5
3B3
  8
TROU
  0
POLYLINE
  5
EC
  8
TROU
 66
     1
 10
0.0
 20
0.0
 30
0.0
 70
     1
  0
VERTEX
  5
2F1
  8
TROU
 10
921.865332199897
 20
398.5691238700397
 30
0.0
  0
VERTEX
  5
2F2
  8
TROU
 10
921.865332199897
 20
418.5691238700397
 30
0.0
 42
1.0
  0
VERTEX
  5
2F3
  8
TROU
 10
909.665332199897
 20
418.5691238700397
 30
0.0
  0
VERTEX
  5
2F4
  8
TROU
 10
909.665332199897
 20
398.5691238700397
 30
0.0
 42
1.0
  0
SEQEND
  5
3B4
  8
TROU
  0
POLYLINE
  5
ED
  8
TROU
 66
     1
 10
0.0
 20
0.0
 30
0.0
 70
     1
  0
VERTEX
  5
2F5
  8
TROU
 10
1004.88197497228
 20
398.5691238700397
 30
0.0
  0
VERTEX
  5
2F6
  8
TROU
 10
1004.88197497228
 20
418.5691238700397
 30
0.0
 42
1.0
  0
VERTEX
  5
2F7
  8
TROU
 10
992.6819749722798
 20
418.5691238700397
 30
0.0
  0
VERTEX
  5
2F8
  8
TROU
 10
992.6819749722798
 20
398.5691238700397
 30
0.0
 42
1.0
  0
SEQEND
  5
3B5
  8
TROU
  0
POLYLINE
  5
EE
  8
TROU
 66
     1
 10
0.0
 20
0.0
 30
0.0
 70
     1
  0
VERTEX
  5
2F9
  8
TROU
 10
1088.068239822227
 20
398.5691238700397
 30
0.0
  0
VERTEX
  5
2FA
  8
TROU
 10
1088.068239822227
 20
418.5691238700397
 30
0.0
 42
1.0
  0
VERTEX
  5
2FB
  8
TROU
 10
1075.868239822227
 20
418.5691238700397
 30
0.0
  0
VERTEX
  5
2FC
  8
TROU
 10
1075.868239822227
 20
398.5691238700397
 30
0.0
 42
1.0
  0
SEQEND
  5
3B6
  8
TROU
  0
POLYLINE
  5
EF
  8
TROU
 66
     1
 10
0.0
 20
0.0
 30
0.0
 70
     1
  0
VERTEX
  5
2FD
  8
TROU
 10
1171.08488259461
 20
398.5691238700397
 30
0.0
  0
VERTEX
  5
2FE
  8
TROU
 10
1171.08488259461
 20
418.5691238700397
 30
0.0
 42
1.0
  0
VERTEX
  5
2FF
  8
TROU
 10
1158.88488259461
 20
418.5691238700397
 30
0.0
  0
VERTEX
  5
300
  8
TROU
 10
1158.88488259461
 20
398.5691238700397
 30
0.0
 42
1.0
  0
SEQEND
  5
3B7
  8
TROU
  0
POLYLINE
  5
F0
  8
TROU
 66
     1
 10
0.0
 20
0.0
 30
0.0
 70
     1
  0
VERTEX
  5
301
  8
TROU
 10
91.10000000000002
 20
309.8633949613887
 30
0.0
  0
VERTEX
  5
302
  8
TROU
 10
91.10000000000002
 20
329.8633949613887
 30
0.0
 42
1.0
  0
VERTEX
  5
303
  8
TROU
 10
78.89999999999998
 20
329.8633949613887
 30
0.0
  0
VERTEX
  5
304
  8
TROU
 10
78.89999999999998
 20
309.8633949613887
 30
0.0
 42
1.0
  0
SEQEND
  5
3B8
  8
TROU
  0
POLYLINE
  5
F1
  8
TROU
 66
     1
 10
0.0
 20
0.0
 30
0.0
 70
     1
  0
VERTEX
  5
305
  8
TROU
 10
174.1991737202275
 20
309.8633949613887
 30
0.0
  0
VERTEX
  5
306
  8
TROU
 10
174.1991737202275
 20
329.8633949613887
 30
0.0
 42
1.0
  0
VERTEX
  5
307
  8
TROU
 10
161.9991737202275
 20
329.8633949613887
 30
0.0
  0
VERTEX
  5
308
  8
TROU
 10
161.9991737202275
 20
309.8633949613887
 30
0.0
 42
1.0
  0
SEQEND
  5
3B9
  8
TROU
  0
POLYLINE
  5
F2
  8
TROU
 66
     1
 10
0.0
 20
0.0
 30
0.0
 70
     1
  0
VERTEX
  5
309
  8
TROU
 10
257.2158164926107
 20
309.8633949613887
 30
0.0
  0
VERTEX
  5
30A
  8
TROU
 10
257.2158164926107
 20
329.8633949613887
 30
0.0
 42
1.0
  0
VERTEX
  5
30B
  8
TROU
 10
245.0158164926107
 20
329.8633949613887
 30
0.0
  0
VERTEX
  5
30C
  8
TROU
 10
245.0158164926107
 20
309.8633949613887
 30
0.0
 42
1.0
  0
SEQEND
  5
3BA
  8
TROU
  0
POLYLINE
  5
F3
  8
TROU
 66
     1
 10
0.0
 20
0.0
 30
0.0
 70
     1
  0
VERTEX
  5
30D
  8
TROU
 10
340.3271558190709
 20
309.8633949613887
 30
0.0
  0
VERTEX
  5
30E
  8
TROU
 10
340.3271558190709
 20
329.8633949613887
 30
0.0
 42
1.0
  0
VERTEX
  5
30F
  8
TROU
 10
328.1271558190708
 20
329.8633949613887
 30
0.0
  0
VERTEX
  5
310
  8
TROU
 10
328.1271558190708
 20
309.8633949613887
 30
0.0
 42
1.0
  0
SEQEND
  5
3BB
  8
TROU
  0
POLYLINE
  5
F4
  8
TROU
 66
     1
 10
0.0
 20
0.0
 30
0.0
 70
     1
  0
VERTEX
  5
311
  8
TROU
 10
423.4263295392998
 20
309.8633949613887
 30
0.0
  0
VERTEX
  5
312
  8
TROU
 10
423.4263295392998
 20
329.8633949613887
 30
0.0
 42
1.0
  0
VERTEX
  5
313
  8
TROU
 10
411.2263295392995
 20
329.8633949613887
 30
0.0
  0
VERTEX
  5
314
  8
TROU
 10
411.2263295392995
 20
309.8633949613887
 30
0.0
 42
1.0
  0
SEQEND
  5
3BC
  8
TROU
  0
POLYLINE
  5
F5
  8
TROU
 66
     1
 10
0.0
 20
0.0
 30
0.0
 70
     1
  0
VERTEX
  5
315
  8
TROU
 10
506.4429723116846
 20
309.8633949613887
 30
0.0
  0
VERTEX
  5
316
  8
TROU
 10
506.4429723116846
 20
329.8633949613887
 30
0.0
 42
1.0
  0
VERTEX
  5
317
  8
TROU
 10
494.2429723116844
 20
329.8633949613887
 30
0.0
  0
VERTEX
  5
318
  8
TROU
 10
494.2429723116844
 20
309.8633949613887
 30
0.0
 42
1.0
  0
SEQEND
  5
3BD
  8
TROU
  0
POLYLINE
  5
F6
  8
TROU
 66
     1
 10
0.0
 20
0.0
 30
0.0
 70
     1
  0
VERTEX
  5
319
  8
TROU
 10
589.5390026606055
 20
309.8633949613887
 30
0.0
  0
VERTEX
  5
31A
  8
TROU
 10
589.5390026606055
 20
329.8633949613887
 30
0.0
 42
1.0
  0
VERTEX
  5
31B
  8
TROU
 10
577.3390026606057
 20
329.8633949613887
 30
0.0
  0
VERTEX
  5
31C
  8
TROU
 10
577.3390026606057
 20
309.8633949613887
 30
0.0
 42
1.0
  0
SEQEND
  5
3BE
  8
TROU
  0
POLYLINE
  5
F7
  8
TROU
 66
     1
 10
0.0
 20
0.0
 30
0.0
 70
     1
  0
VERTEX
  5
31D
  8
TROU
 10
672.6381763808312
 20
309.8633949613887
 30
0.0
  0
VERTEX
  5
31E
  8
TROU
 10
672.6381763808312
 20
329.8633949613887
 30
0.0
 42
1.0
  0
VERTEX
  5
31F
  8
TROU
 10
660.4381763808315
 20
329.8633949613887
 30
0.0
  0
VERTEX
  5
320
  8
TROU
 10
660.4381763808315
 20
309.8633949613887
 30
0.0
 42
1.0
  0
SEQEND
  5
3BF
  8
TROU
  0
POLYLINE
  5
F8
  8
TROU
 66
     1
 10
0.0
 20
0.0
 30
0.0
 70
     1
  0
VERTEX
  5
321
  8
TROU
 10
755.6548191532122
 20
309.8633949613887
 30
0.0
  0
VERTEX
  5
322
  8
TROU
 10
755.6548191532122
 20
329.8633949613887
 30
0.0
 42
1.0
  0
VERTEX
  5
323
  8
TROU
 10
743.4548191532126
 20
329.8633949613887
 30
0.0
  0
VERTEX
  5
324
  8
TROU
 10
743.4548191532126
 20
309.8633949613887
 30
0.0
 42
1.0
  0
SEQEND
  5
3C0
  8
TROU
  0
POLYLINE
  5
F9
  8
TROU
 66
     1
 10
0.0
 20
0.0
 30
0.0
 70
     1
  0
VERTEX
  5
325
  8
TROU
 10
838.7661584796703
 20
309.8633949613887
 30
0.0
  0
VERTEX
  5
326
  8
TROU
 10
838.7661584796703
 20
329.8633949613887
 30
0.0
 42
1.0
  0
VERTEX
  5
327
  8
TROU
 10
826.5661584796704
 20
329.8633949613887
 30
0.0
  0
VERTEX
  5
328
  8
TROU
 10
826.5661584796704
 20
309.8633949613887
 30
0.0
 42
1.0
  0
SEQEND
  5
3C1
  8
TROU
  0
POLYLINE
  5
FA
  8
TROU
 66
     1
 10
0.0
 20
0.0
 30
0.0
 70
     1
  0
VERTEX
  5
329
  8
TROU
 10
921.865332199897
 20
309.8633949613887
 30
0.0
  0
VERTEX
  5
32A
  8
TROU
 10
921.865332199897
 20
329.8633949613887
 30
0.0
 42
1.0
  0
VERTEX
  5
32B
  8
TROU
 10
909.665332199897
 20
329.8633949613887
 30
0.0
  0
VERTEX
  5
32C
  8
TROU
 10
909.665332199897
 20
309.8633949613887
 30
0.0
 42
1.0
  0
SEQEND
  5
3C2
  8
TROU
  0
POLYLINE
  5
FB
  8
TROU
 66
     1
 10
0.0
 20
0.0
 30
0.0
 70
     1
  0
VERTEX
  5
32D
  8
TROU
 10
1004.88197497228
 20
309.8633949613887
 30
0.0
  0
VERTEX
  5
32E
  8
TROU
 10
1004.88197497228
 20
329.8633949613887
 30
0.0
 42
1.0
  0
VERTEX
  5
32F
  8
TROU
 10
992.6819749722798
 20
329.8633949613887
 30
0.0
  0
VERTEX
  5
330
  8
TROU
 10
992.6819749722798
 20
309.8633949613887
 30
0.0
 42
1.0
  0
SEQEND
  5
3C3
  8
TROU
  0
POLYLINE
  5
FC
  8
TROU
 66
     1
 10
0.0
 20
0.0
 30
0.0
 70
     1
  0
VERTEX
  5
331
  8
TROU
 10
1088.068239822227
 20
309.8633949613887
 30
0.0
  0
VERTEX
  5
332
  8
TROU
 10
1088.068239822227
 20
329.8633949613887
 30
0.0
 42
1.0
  0
VERTEX
  5
333
  8
TROU
 10
1075.868239822227
 20
329.8633949613887
 30
0.0
  0
VERTEX
  5
334
  8
TROU
 10
1075.868239822227
 20
309.8633949613887
 30
0.0
 42
1.0
  0
SEQEND
  5
3C4
  8
TROU
  0
POLYLINE
  5
FD
  8
TROU
 66
     1
 10
0.0
 20
0.0
 30
0.0
 70
     1
  0
VERTEX
  5
335
  8
TROU
 10
1171.08488259461
 20
309.8633949613887
 30
0.0
  0
VERTEX
  5
336
  8
TROU
 10
1171.08488259461
 20
329.8633949613887
 30
0.0
 42
1.0
  0
VERTEX
  5
337
  8
TROU
 10
1158.88488259461
 20
329.8633949613887
 30
0.0
  0
VERTEX
  5
338
  8
TROU
 10
1158.88488259461
 20
309.8633949613887
 30
0.0
 42
1.0
  0
SEQEND
  5
3C5
  8
TROU
  0
ENDSEC
  0
EOF
